<?xml version="1.0" encoding="UTF-8" standalone="no"?> <!-- Created with Vectornator for iOS (http://vectornator.io/) --><!DOCTYPE svg PUBLIC "-//W3C//DTD SVG 1.1//EN" "http://www.w3.org/Graphics/SVG/1.1/DTD/svg11.dtd">
<svg height="100%" style="fill-rule:nonzero;clip-rule:evenodd;stroke-linecap:round;stroke-linejoin:round;" xmlns:xlink="http://www.w3.org/1999/xlink" xmlns="http://www.w3.org/2000/svg" xml:space="preserve" width="100%" xmlns:vectornator="http://vectornator.io" version="1.1" viewBox="0 0 512 351.768">
<metadata>
<vectornator:setting key="DimensionsVisible" value="0"/>
<vectornator:setting key="PencilOnly" value="0"/>
<vectornator:setting key="SnapToPoints" value="0"/>
<vectornator:setting key="OutlineMode" value="0"/>
<vectornator:setting key="CMYKEnabledKey" value="0"/>
<vectornator:setting key="RulersVisible" value="1"/>
<vectornator:setting key="SnapToEdges" value="0"/>
<vectornator:setting key="GuidesVisible" value="0"/>
<vectornator:setting key="DisplayWhiteBackground" value="0"/>
<vectornator:setting key="doHistoryDisabled" value="0"/>
<vectornator:setting key="SnapToGuides" value="1"/>
<vectornator:setting key="TimeLapseWatermarkDisabled" value="0"/>
<vectornator:setting key="Units" value="Points"/>
<vectornator:setting key="DynamicGuides" value="1"/>
<vectornator:setting key="IsolateActiveLayer" value="0"/>
<vectornator:setting key="SnapToGrid" value="0"/>
</metadata>
<defs/>
<g id="Untitled" vectornator:layerName="Untitled">
<path d="M441.953+130.068C437.506+61.1958+380.244+6.70783+310.248+6.70783C250.767+6.70783+200.482+46.0538+183.984+100.137C174.74+96.6368+164.725+94.7058+154.255+94.7058C111.415+94.7058+76.091+126.786+70.933+168.229C70.624+168.225+70.319+168.206+70.009+168.206C33.146+168.206+3.262+198.089+3.262+234.953C3.262+271.817+33.145+301.699+70.009+301.699C74.395+301.699+78.678+301.263+82.828+300.456C102.979+327.525+135.222+345.06+171.562+345.06C202.791+345.06+230.991+332.108+251.095+311.288C266.166+326.379+286.996+335.716+310.008+335.716C341.438+335.716+368.791+318.296+382.963+292.589C394.639+298.413+407.807+301.695+421.74+301.695C469.787+301.695+508.738+262.746+508.738+214.699C508.738+173.611+480.252+139.181+441.953+130.068Z" opacity="1" fill="#ffffff"/>
</g>
</svg>
