<svg xmlns="http://www.w3.org/2000/svg" width="50" height="50" viewBox="0 0 155.987 200"><defs></defs><g transform="translate(-13.11 -258.718)"><path fill="rgba(181, 161, 91, 0.9)" class="a" d="M26.256,258.718A13.232,13.232,0,0,0,13.11,271.852v173.72a13.243,13.243,0,0,0,13.146,13.146h129.7A13.235,13.235,0,0,0,169.1,445.572V271.852a13.224,13.224,0,0,0-13.137-13.134Zm0,10.818h129.7a2.2,2.2,0,0,1,2.319,2.316v173.72a2.2,2.2,0,0,1-2.319,2.316H26.256a2.2,2.2,0,0,1-2.316-2.316V271.852A2.2,2.2,0,0,1,26.256,269.536Zm27.986,44.1c-4.031,0-7.277,3.787-7.277,8.49v44.146c0,4.7,3.245,8.49,7.277,8.49H71.464L69.649,394.11,90.9,374.759h40.483c4.031,0,7.277-3.787,7.277-8.49V322.124c0-4.7-3.245-8.49-7.277-8.49ZM69.2,338a6.175,6.175,0,1,1-6.175,6.175A6.175,6.175,0,0,1,69.2,338ZM92.9,338a6.175,6.175,0,1,1-6.178,6.175A6.175,6.175,0,0,1,92.9,338Zm23.7,0a6.175,6.175,0,1,1-6.175,6.175A6.175,6.175,0,0,1,116.609,338Z" transform="translate(0 0)"/></g></svg>
