<svg xmlns="http://www.w3.org/2000/svg" width="189.79" height="200" viewBox="0 0 189.79 200"><g transform="translate(-13.145 -261.803)"><path fill="rgb(57, 82, 111)" d="M93.212,261.8c-5.24,0-9.459,4.979-9.459,11.161v58.023c0,6.182,4.219,11.157,9.459,11.157H115.6l-2.357,25.433,27.617-25.433h52.62c5.24,0,9.459-4.975,9.459-11.157V272.964c0-6.182-4.219-11.161-9.459-11.161Zm19.44,32.026a8.118,8.118,0,1,1-8.03,8.118,8.072,8.072,0,0,1,8.03-8.118Zm30.811,0a8.118,8.118,0,1,1-8.026,8.118,8.072,8.072,0,0,1,8.026-8.118Zm30.815,0a8.118,8.118,0,1,1-8.026,8.119,8.072,8.072,0,0,1,8.026-8.119ZM59.252,346.873a35.391,35.391,0,1,0,35.389,35.392,35.392,35.392,0,0,0-35.389-35.392Zm-22.1,77.677C26,432.308,17.412,445.631,13.145,461.8h92.212c-4.27-16.167-12.856-29.484-24.008-37.238a47.514,47.514,0,0,1-44.2-.014Z" transform="translate(0 0)"/></g></svg>
