<svg xmlns="http://www.w3.org/2000/svg" width="200" height="175.357" viewBox="0 0 200 175.357"><path fill="rgb(68, 118, 107)" d="M2712.5,263.51c-4.806,0-8.676,3.466-8.676,7.77V404.7c0,4.3,3.87,7.77,8.676,7.77h71.049c-2.077,9.493-7.644,16.359-13.952,23.167a1.925,1.925,0,0,0,1.412,3.234h65.629a1.926,1.926,0,0,0,1.413-3.234c-6.308-6.807-11.876-13.674-13.953-23.167h71.05c4.806,0,8.675-3.466,8.675-7.77V271.28c0-4.3-3.869-7.77-8.675-7.77Zm-.846,20.3h184.34V392.168h-184.34Zm50.556,24.466a14.994,14.994,0,1,0,14.994,14.994A14.994,14.994,0,0,0,2762.209,308.275Zm83.229,0a14.994,14.994,0,1,0,14.993,14.993,14.995,14.995,0,0,0-14.993-14.993Zm-83.229,34.986c-13.845,0-24.99,6.617-24.99,14.838v6.3h49.98v-6.3C2787.2,349.879,2776.054,343.261,2762.209,343.261Zm83.229,0c-13.845,0-24.992,6.617-24.992,14.838v6.3h49.981v-6.3C2870.427,349.879,2859.282,343.261,2845.438,343.261Z" transform="translate(-2703.823 -263.51)"/></svg>
