<svg xmlns="http://www.w3.org/2000/svg" width="50" height="50" viewBox="0 0 200 164.482"><path fill="rgba(70, 172, 128, 0.9)" d="M23.467,264.41a11.007,11.007,0,0,0-10.9,10.9V417.992a11.007,11.007,0,0,0,10.9,10.9h178.2a11.007,11.007,0,0,0,10.9-10.9V275.309a11.007,11.007,0,0,0-10.9-10.9Zm.683,11.583H200.985V417.309H24.151Zm48.12,14.5a16.141,16.141,0,1,0,16.141,16.142,16.141,16.141,0,0,0-16.141-16.142Zm54.28,17.89L93.722,357.672,78.494,334.806l-38.7,58.112H182.856Z" transform="translate(-12.568 -264.41)"/></svg>
