<svg xmlns="http://www.w3.org/2000/svg" width="50" height="50" viewBox="0 0 200 184.52"><path fill="rgba(211, 93, 135, 0.9)" d="M23.695,264.589A9.5,9.5,0,0,0,14.27,274V439.693a9.5,9.5,0,0,0,9.424,9.416h78.379a9.493,9.493,0,0,0,9.416-9.416V274a9.493,9.493,0,0,0-9.416-9.416Zm102.779,0A9.493,9.493,0,0,0,117.058,274V439.693a9.493,9.493,0,0,0,9.416,9.416h78.379a9.495,9.495,0,0,0,9.417-9.416V274a9.495,9.495,0,0,0-9.417-9.416ZM23.695,273.5h78.379c.356,0,.5.145.5.5V439.693c0,.357-.144.507-.5.507H23.695c-.356,0-.507-.15-.507-.507V274c0-.357.151-.5.507-.5Zm102.779,0h78.379c.356,0,.5.145.5.5V439.693c0,.357-.143.507-.5.507H126.473c-.356,0-.507-.15-.507-.507V274C125.967,273.647,126.117,273.5,126.473,273.5ZM40.555,312.7c-5.3-.007-5.3,7.948,0,7.937H85.2c5.3.007,5.3-7.948,0-7.937Zm102.78,0c-5.3-.007-5.3,7.948,0,7.937h44.646c5.3.007,5.3-7.948,0-7.937ZM85.309,352.882l-.026,0-.082,0H40.555c-5.508-.225-5.508,8.156,0,7.931H85.2c5.408.2,5.519-7.981.108-7.934Zm102.781,0-.026,0-.082,0H143.335c-5.508-.225-5.508,8.156,0,7.931h44.646c5.408.2,5.521-7.981.11-7.934ZM40.555,393.064c-5.175.115-5.175,7.821,0,7.936H85.2c5.175-.115,5.175-7.821,0-7.936Zm102.78,0c-5.175.115-5.175,7.821,0,7.936h44.646c5.175-.115,5.175-7.821,0-7.936Z" transform="translate(-14.27 -264.589)"/></svg>
