<svg xmlns="http://www.w3.org/2000/svg" width="50" height="50" viewBox="0 0 200 177.163"><path fill="rgba(66, 191, 176, 0.9)" d="M109.808,263.177a7.943,7.943,0,0,0-7.876,7.87V432.465a7.948,7.948,0,0,0,7.876,7.876H204.3a7.948,7.948,0,0,0,7.876-7.876V271.047a7.943,7.943,0,0,0-7.876-7.87Zm0,7.87H204.3V432.465H109.808Zm19.687,18.112a6.377,6.377,0,0,0-6.3,6.3v15.746a6.377,6.377,0,0,0,6.3,6.3h16.536a6.371,6.371,0,0,0,6.295-6.3V295.46a6.371,6.371,0,0,0-6.295-6.3Zm38.583,0a6.377,6.377,0,0,0-6.3,6.3v15.746a6.377,6.377,0,0,0,6.3,6.3h16.531a6.377,6.377,0,0,0,6.3-6.3V295.46a6.377,6.377,0,0,0-6.3-6.3Zm-37.008,7.876h13.386v12.6H131.07Zm38.583,0h13.38v12.6h-13.38ZM20.047,312.781a7.948,7.948,0,0,0-7.876,7.876V431.68a7.943,7.943,0,0,0,7.876,7.87h66.93a7.938,7.938,0,0,0,7.87-7.87V320.657a7.943,7.943,0,0,0-7.87-7.876Zm0,7.876h66.93V431.68H20.047Zm109.448,4.726a6.372,6.372,0,0,0-6.3,6.295v15.752a6.372,6.372,0,0,0,6.3,6.295h16.536a6.367,6.367,0,0,0,6.295-6.295V331.677a6.367,6.367,0,0,0-6.295-6.295Zm38.583,0a6.372,6.372,0,0,0-6.3,6.295v15.752a6.372,6.372,0,0,0,6.3,6.295h16.531a6.372,6.372,0,0,0,6.3-6.295V331.677a6.372,6.372,0,0,0-6.3-6.295ZM33.433,331.677a6.377,6.377,0,0,0-6.3,6.3V342.7a6.377,6.377,0,0,0,6.3,6.3H73.591a6.372,6.372,0,0,0,6.295-6.3v-4.726a6.372,6.372,0,0,0-6.295-6.3Zm97.637,1.575h13.386v12.6H131.07Zm38.583,0h13.38v12.6h-13.38Zm-134.645,6.3H72.016v1.575H35.008Zm-1.575,16.141a6.377,6.377,0,0,0-6.3,6.3v4.726a6.371,6.371,0,0,0,6.3,6.295H73.591a6.367,6.367,0,0,0,6.295-6.295v-4.726a6.372,6.372,0,0,0-6.295-6.3Zm96.062,5.905a6.377,6.377,0,0,0-6.3,6.3v15.746a6.377,6.377,0,0,0,6.3,6.3h16.536a6.372,6.372,0,0,0,6.295-6.3V367.9a6.372,6.372,0,0,0-6.295-6.3Zm38.583,0a6.377,6.377,0,0,0-6.3,6.3v15.746a6.377,6.377,0,0,0,6.3,6.3h16.531a6.377,6.377,0,0,0,6.3-6.3V367.9a6.377,6.377,0,0,0-6.3-6.3Zm-133.07,1.97H72.016v1.575H35.008Zm96.062,5.906h13.386v12.6H131.07Zm38.583,0h13.38v12.6h-13.38ZM33.433,379.711a6.377,6.377,0,0,0-6.3,6.3v4.72a6.377,6.377,0,0,0,6.3,6.3H73.591a6.372,6.372,0,0,0,6.295-6.3v-4.72a6.372,6.372,0,0,0-6.295-6.3Zm1.575,7.876H72.016v1.569H35.008Z" transform="translate(-12.171 -263.177)"/></svg>
