<svg xmlns="http://www.w3.org/2000/svg" width="155.987" height="200" viewBox="0 0 155.987 200"><defs></defs><g transform="translate(-13.11 -258.718)"><path fill="rgb(53, 201, 235)" class="a" d="M26.247,258.718A13.224,13.224,0,0,0,13.11,271.852v173.72a13.235,13.235,0,0,0,13.137,13.146h129.7A13.243,13.243,0,0,0,169.1,445.572V271.852a13.232,13.232,0,0,0-13.146-13.134Zm0,10.818h129.7a2.2,2.2,0,0,1,2.316,2.316v173.72a2.2,2.2,0,0,1-2.316,2.316H26.247a2.2,2.2,0,0,1-2.319-2.316V271.852A2.2,2.2,0,0,1,26.247,269.536Zm26.244,32.032v8.916h8.146v-8.916Zm22.065,0v8.916h55.151v-8.916ZM52.491,334.542v8.916h8.146v-8.916Zm22.065,0v8.916h55.151v-8.916ZM52.491,367.519v8.916h8.146v-8.916Zm22.065,0v8.916h55.151v-8.916ZM52.491,400.493v8.916h8.146v-8.916Zm22.065,0v8.916h55.151v-8.916Z" transform="translate(0 0)"/></g></svg>
