<svg xmlns="http://www.w3.org/2000/svg" width="50" height="50" viewBox="0 0 155.972 200"><defs></defs><g transform="translate(-13.111 -258.718)"><path fill="rgba(246, 114, 128, 0.9)" class="a" d="M26.245,258.718a13.222,13.222,0,0,0-13.134,13.134v173.72a13.232,13.232,0,0,0,13.134,13.146h129.7a13.232,13.232,0,0,0,13.134-13.146V271.852a13.222,13.222,0,0,0-13.134-13.134Zm0,10.818h129.7a2.2,2.2,0,0,1,2.316,2.316v173.72a2.2,2.2,0,0,1-2.316,2.316H26.245a2.2,2.2,0,0,1-2.316-2.316V271.852A2.2,2.2,0,0,1,26.245,269.536Zm23.886,34.822v35.556h81.932V304.358Zm0,62.609v6.183h81.932v-6.183Zm0,23.188v6.183h81.932v-6.183Z" transform="translate(0 0)"/></g></svg>
