<svg xmlns="http://www.w3.org/2000/svg" width="176.93" height="200" viewBox="0 0 176.93 200"><g transform="translate(-13.501 -261.186)"><path d="M21.721,261.186c-4.554,0-8.22,4.326-8.22,9.7v50.427c0,5.373,3.666,9.7,8.22,9.7H67.456l24,22.107-2.05-22.107h19.454c4.554,0,8.22-4.326,8.22-9.7V270.885c0-5.373-3.666-9.7-8.22-9.7Zm16.684,27.833a7.057,7.057,0,1,1-6.975,7.058,7.016,7.016,0,0,1,6.975-7.058Zm26.782,0a7.057,7.057,0,1,1-6.979,7.056,7.015,7.015,0,0,1,6.979-7.056Zm26.778,0a7.057,7.057,0,1,1-6.975,7.056,7.016,7.016,0,0,1,6.975-7.056ZM145.426,341a31.43,31.43,0,1,0,31.432,31.43A31.43,31.43,0,0,0,145.426,341Zm27.547,62.32a41.242,41.242,0,0,1-55.063.014c-11.008,6.11-17.462,15.533-17.485,25.526,0,17.855,20.149,32.328,45,32.328s45-14.474,45-32.327c-.01-9.994-6.454-19.423-17.457-25.54Z" transform="translate(0 0)"/></g></svg>