<?xml version="1.0" encoding="utf-8"?>
<!-- Generator: Adobe Illustrator 19.1.0, SVG Export Plug-In . SVG Version: 6.00 Build 0)  -->
<svg version="1.1" id="Layer_1" xmlns="http://www.w3.org/2000/svg" xmlns:xlink="http://www.w3.org/1999/xlink" x="0px" y="0px"
	 viewBox="0 0 400 262" style="enable-background:new 0 0 400 262;" xml:space="preserve">
<style type="text/css">
	.st0{fill:url(#SVGID_1_);}
	.st1{fill:#009FE8;}
	.st2{fill:#FFFFFF;stroke:#231815;stroke-width:0.1736;stroke-miterlimit:10;}
	.st3{fill:#E50012;stroke:#231815;stroke-width:0.1568;stroke-miterlimit:10;}
	.st4{fill:#009844;}
	.st5{fill:#F29600;}
	.st6{fill:url(#SVGID_2_);}
	.st7{fill:#00AEEB;}
</style>
<g>
	<g>
		<g>
			
				<radialGradient id="SVGID_1_" cx="109.6953" cy="109.6961" r="109.6957" gradientTransform="matrix(nan nan nan nan nan nan)" gradientUnits="userSpaceOnUse">
				<stop  offset="0" style="stop-color:#FFFFFF"/>
				<stop  offset="0.7" style="stop-color:#FFF000"/>
			</radialGradient>
			<path class="st0" d="M49.1,200.3l0.2,0.1l-0.3-0.2C49,200.3,49.1,200.3,49.1,200.3z M170.3,19.1c-0.1,0-0.1-0.1-0.2-0.1l0.4,0.3
				C170.4,19.2,170.3,19.1,170.3,19.1z M201.1,171l0.2-0.3c0,0-0.1,0.1-0.1,0.1C201.2,170.9,201.1,170.9,201.1,171z M219,112.1
				l-47.3-1.1v-2.6l47.4-1.2h0.3c-0.2-5.6-0.8-11.1-1.8-16.6h0l-47,8.2l-0.5-2.6L216.6,86l0.1,0c-1.1-5.4-2.7-10.8-4.7-16l-0.3,0.1
				l-44.2,17.1l-1-2.4l43.3-19.1l0.4-0.2c-2.2-5.1-4.8-10.1-7.7-14.8l-0.6,0.4L162,76.2l-1.4-2.2l38.5-27l0.6-0.4
				c-3.2-4.6-6.7-8.9-10.6-13l-0.7,0.7l-33.9,32.3l-1.8-1.9l32.3-33.9l0.7-0.7c-4-3.8-8.3-7.4-12.9-10.6l-0.6,0.8l0,0c0,0,0,0,0,0
				l-27.5,39.1l-2.2-1.4l25.6-40.3c0,0,0,0,0,0l0-0.1l0.5-0.8c-4.8-3-9.7-5.7-14.8-7.9l-0.4,0.9l-18.9,42.8l-2.4-1l16.9-43.7
				l0.3-0.9c-5.3-2-10.6-3.6-16-4.8l-0.2,0.8L123.1,49l-2.6-0.5l8.1-46.3l0.1-0.7c-5.5-0.9-11.1-1.4-16.6-1.5l0,0.4L111,47.8h-2.6
				l-1.1-47.4l0-0.3c-5.6,0.2-11.1,0.8-16.6,1.8v0l8.2,47l-2.6,0.5L86,2.8l0-0.1c-5.4,1.2-10.8,2.7-16,4.7l0.1,0.3L87.2,52l-2.4,1
				L65.6,9.7l-0.2-0.4c-5.1,2.2-10.1,4.8-14.8,7.8l0.4,0.6l25.2,39.7l-2.2,1.4l-27-38.5l-0.5-0.6c-4.6,3.1-8.9,6.7-13,10.5l0.7,0.7
				l32.3,33.9l-1.8,1.9L30.9,34.3l-0.7-0.7c-3.8,4-7.4,8.3-10.6,12.9l0.8,0.6l0,0l38.2,26.9l-1.4,2.2L17.8,51.2l0,0l-0.9-0.5
				c-3,4.8-5.7,9.7-7.9,14.8l0.9,0.4l42.8,18.9l-1,2.4L8.1,70.2l-0.9-0.4c-2,5.3-3.6,10.6-4.8,16l0.8,0.2L49,96.3l-0.5,2.6L2.2,90.8
				l-0.7-0.1c-0.9,5.5-1.4,11.1-1.5,16.6h0.5l47.3,1.2v2.6l-47.4,1.1l-0.3,0c0.2,5.6,0.8,11.1,1.8,16.6l0,0l47-8.2l0.5,2.6
				L2.8,133.4l-0.1,0c1.2,5.4,2.7,10.8,4.7,16l0.3-0.1L52,132.2l1,2.4L9.7,153.7l-0.4,0.2c2.2,5.1,4.8,10,7.8,14.8l0.6-0.4
				l39.7-25.2l1.4,2.2l-38.4,27l-0.6,0.5c3.2,4.6,6.7,8.9,10.6,13l0.7-0.6l33.9-32.3l1.8,1.9l-32.3,33.8l-0.7,0.7
				c4,3.8,8.3,7.4,13,10.6l0.6-0.8l0,0c0,0,0,0,0,0l27.4-39.1l2.2,1.4l-0.5,0.9l-17.8,28l-7.3,11.4c0,0,0,0,0,0l0,0l-0.5,0.8
				c4.8,3,9.7,5.7,14.8,7.9l0.4-0.9l18.9-42.8l2.4,1l-16.9,43.7l-0.3,0.9c5.3,2,10.6,3.6,16,4.8l0.2-0.8l10.2-45.9l2.6,0.5
				l-8.1,46.4l-0.1,0.7c5.5,0.9,11.1,1.4,16.6,1.5l0-0.5l1.1-47.3h2.6l1.1,47.4l0,0.3c5.6-0.2,11.1-0.8,16.6-1.8l0,0l-8.2-47
				l2.6-0.5l10.4,46.6l0,0c5.4-1.2,10.8-2.7,16-4.7l-0.1-0.3l-17.1-44.2l2.4-1l19.1,43.3l0.2,0.4c5.1-2.2,10.1-4.8,14.8-7.7
				l-0.4-0.6l-25.3-39.7l2.2-1.4l27,38.4l0.5,0.6c4.6-3.1,8.9-6.7,13-10.6l-0.6-0.7l-32.3-33.8l1.8-1.9l33.9,32.3l0.7,0.7
				c3.8-4,7.4-8.3,10.6-12.9l-0.8-0.6l0,0c0,0,0,0,0,0l-39.1-27.4l1.4-2.2l0.9,0.6l0,0l23.8,15.1l15.6,9.9l0.1,0l0.8,0.5
				c3-4.8,5.7-9.7,7.9-14.8l-0.9-0.4l-42.8-18.9l1-2.4l43.7,16.9l0.9,0.3c2-5.3,3.6-10.6,4.8-16l-0.8-0.2l-45.9-10.2l0.5-2.6
				l46.4,8.1l0.7,0.1c0.9-5.5,1.4-11.1,1.5-16.6L219,112.1z"/>
		</g>
		<g>
			<path class="st1" d="M68.2,99.4l-0.3,3.1c0.3-1.3,0.6-2.2,0.9-2.5c0.3-0.4,0.8-0.6,1.5-0.6h6.3c0.6,0,1,0.2,1.2,0.6
				c0.3,0.4,0.5,1.2,0.6,2.5c0.2-1.3,0.5-2.1,0.7-2.5c0.3-0.4,0.7-0.6,1.2-0.6h4.5c1,0,1.8,0.8,2.4,2.3c0.7,1.7,1,3.9,1,6.4
				c0,0.8-0.1,2-0.3,3.7l-1.4,14.1c-0.1,1.1-0.2,2.3-0.2,3.5c0,0.7,0.1,1.5,0.2,2.3h-7.4c0.3-1.2,0.6-2.4,0.8-3.3
				c0.2-1,0.3-2.3,0.5-4.2l1.5-14.4c0.1-0.9,0.1-1.5,0.1-2c0-1.4-0.4-2.1-1.2-2.1h-1.5c-0.5,0-0.8,0.2-1,0.7
				c-0.2,0.4-0.4,1.3-0.5,2.6l-1.7,17c-0.1,1.1-0.2,2.3-0.2,3.5c0,0.7,0,1.4,0.2,2.3h-7.4c0.3-1.2,0.6-2.4,0.8-3.3
				c0.2-1,0.3-2.3,0.5-4.2l1.4-14.1c0.1-1.4,0.2-2.2,0.2-2.4c0-0.6-0.1-1.1-0.3-1.4c-0.2-0.4-0.5-0.5-0.8-0.5h-1.5
				c-0.6,0-1,0.2-1.2,0.6c-0.2,0.4-0.4,1.4-0.5,2.8l-1.7,16.7c-0.1,1.1-0.2,2.2-0.2,3.5c0,0.7,0.1,1.5,0.2,2.3h-7.3
				c0.3-1.2,0.6-2.4,0.7-3.3c0.2-1,0.3-2.3,0.5-4.2l2-18.9c0.1-1.1,0.2-2.3,0.2-3.5c0-0.7-0.1-1.5-0.2-2.4H68.2z"/>
			<path class="st1" d="M98,99.4l-2.7,26.5c-0.1,1.1-0.2,2.3-0.2,3.5c0,0.7,0.1,1.4,0.2,2.3h-7.4c0.3-1.2,0.6-2.4,0.8-3.3
				c0.2-1,0.3-2.3,0.5-4.2l1.9-18.9c0.1-1.1,0.2-2.3,0.2-3.5c0-0.7-0.1-1.5-0.2-2.4H98z M99.2,87.8l-0.9,8.5H92l0.9-8.5H99.2z"/>
			<path class="st1" d="M109.9,87.8l-2.3,22.9l3.9-7.1c0.4-0.7,0.7-1.4,0.9-2c0.2-0.6,0.4-1.4,0.5-2.2h5.1c-0.8,1.1-1.6,2.5-2.4,4
				l-3.1,5.7l2.3,16.4c0.2,1.5,0.4,2.6,0.6,3.4c0.2,0.7,0.4,1.7,0.8,2.9h-6.8l-1.9-13.3l-1,1.5l-0.6,6c-0.1,1.1-0.2,2.2-0.2,3.5
				c0,0.7,0,1.5,0.2,2.3h-7.3c0.3-1.2,0.6-2.4,0.7-3.3c0.2-1,0.3-2.3,0.6-4.2l3.1-30.6c0.1-1.1,0.2-2.3,0.2-3.5
				c0-0.7-0.1-1.5-0.2-2.3H109.9z"/>
			<path class="st1" d="M133.9,124.7l-1.1,6.9h-11.1c-1.3,0-2.2-0.7-2.9-2.1c-0.7-1.7-1.1-3.7-1.1-6c0-0.8,0.1-1.7,0.1-2.6l1.5-14.2
				c0.5-4.9,1.8-7.3,4.1-7.3h8c0.9,0,1.6,0.2,2.1,0.5c0.5,0.3,0.9,0.8,1.2,1.6c0.7,1.6,1.1,3.6,1.1,6c0,1.1-0.1,2.1-0.2,3.2l-0.8,8
				h-10.5l-0.3,3c-0.1,0.8-0.1,1.4-0.1,1.8c0,0.4,0,0.7,0.1,1.1c0.1,0.3,0.2,0.6,0.4,0.7c0.1,0.1,0.5,0.2,1.2,0.2h6.2
				C132.6,125.4,133.4,125.1,133.9,124.7z M124.9,112.4h4.2l0.4-3.7c0.1-0.6,0.1-1,0.1-1.4c0-1.1-0.3-1.6-0.9-1.6h-2
				c-0.5,0-0.8,0.2-1,0.6c-0.2,0.4-0.3,1.2-0.5,2.5L124.9,112.4z"/>
			<path class="st1" d="M139.3,87.8h6.5l-1.2,11.4l-5,8.9h-2.3l3.2-8.9h-2.4L139.3,87.8z"/>
			<path class="st1" d="M161,99.4l-0.1,7.4c-0.4-0.5-0.9-0.8-1.3-0.9c-0.4-0.2-1-0.2-1.9-0.2h-5.4c-0.6,0-0.9,0.5-0.9,1.7
				c0,0.5,0.1,0.8,0.2,0.9c0.1,0.1,0.4,0.2,0.8,0.2h4.5c0.9,0,1.6,0.6,2,1.7c0.6,1.4,0.9,3,0.9,4.8c0,0.8-0.1,1.9-0.2,3.2l-0.5,4.9
				c-0.2,1.7-0.3,3-0.6,4c-0.2,0.9-0.5,1.8-0.9,2.5c-0.4,0.8-0.9,1.4-1.4,1.7c-0.5,0.3-1.2,0.4-2.3,0.4h-10.8l0.3-7.3
				c0.5,0.4,0.9,0.7,1.1,0.7c0.2,0.1,1,0.2,2.4,0.2h5c0.6,0,0.9-0.8,0.9-2.3c0-0.4-0.1-0.7-0.1-0.9c-0.1-0.1-0.3-0.2-0.5-0.2h-3.8
				c-0.8,0-1.4-0.1-1.8-0.3c-0.4-0.2-0.7-0.5-1-0.9c-0.8-1.3-1.1-3.2-1.1-5.7c0-0.7,0-1.3,0.1-1.9l0.7-6.6c0.4-3,0.9-5,1.6-5.9
				c0.6-0.8,1.4-1.3,2.7-1.3H161z"/>
		</g>
		<g>
			<g>
				<polygon class="st2" points="304.4,35.8 339.9,35.8 329.1,31.7 304.4,31.7 				"/>
				<polygon class="st2" points="304.4,42.5 357.6,42.5 346.8,38.4 304.4,38.4 				"/>
				<polygon class="st2" points="304.4,49.1 346.8,49.1 357.6,45.1 304.4,45.1 				"/>
				<polygon class="st2" points="304.4,62.5 311.3,62.5 322.1,58.5 304.4,58.5 				"/>
				<polygon class="st2" points="304.4,25.1 304.4,29.1 322.1,29.1 311.3,25.1 				"/>
				<polygon class="st2" points="304.4,55.8 329.1,55.8 339.9,51.8 304.4,51.8 				"/>
				<polygon class="st3" points="304.4,58.5 322.1,58.5 329.1,55.8 304.4,55.8 				"/>
				<polygon class="st3" points="304.4,65.1 311.3,62.5 304.4,62.5 				"/>
				<polygon class="st3" points="304.4,38.4 346.8,38.4 339.9,35.8 304.4,35.8 				"/>
				<polygon class="st3" points="304.4,51.8 339.9,51.8 346.8,49.1 304.4,49.1 				"/>
				<polygon class="st3" points="304.4,45.1 357.6,45.1 361.1,43.8 357.6,42.5 304.4,42.5 				"/>
				<polygon class="st3" points="304.4,31.7 329.1,31.7 322.1,29.1 304.4,29.1 				"/>
				<polygon class="st3" points="304.4,22.4 304.4,25.1 311.3,25.1 				"/>
			</g>
			<path class="st4" d="M208.4,128.5c0,3.8-1.9,5.7-5.7,5.7h-16.2c-3.8,0-5.7-1.9-5.7-5.7V90.7c0-3.8,1.9-5.7,5.7-5.7h16.2
				c3.8,0,5.7,1.9,5.7,5.7v17.7l-2.3,2.4h-18.7v17.8h14.5v-9h6.5V128.5z M201.9,105.4V90.6h-14.5v14.8H201.9z"/>
			<path class="st5" d="M247.8,134.2h-6.7V91l-14.8,0.4l0.1,115.2h-6.8V85h6.7v1.4c2.6-0.3,5.3-0.7,7.9-1.1c3.2-0.4,5.9-0.6,8-0.6
				c3.7,0,5.6,1.8,5.6,5.5V134.2z"/>
			<path class="st4" d="M286.6,147.1c0,3.8-1.9,5.7-5.7,5.7h-16c-3.9,0-5.8-2.4-5.8-7.2c0-0.6,0-1.4,0.1-2.6
				c0.1-1.1,0.1-1.9,0.1-2.5h6.6v6.5h14.1v-12.9h-11.1c-3,0-5.5-1-7.5-3c-2-2-3-4.5-3-7.6V94.9c0-2.9,0.9-5.3,2.6-7.3
				c1.8-1.9,4.1-2.9,6.9-2.9c0.8,0,4.8,0.6,12,1.7V85h6.7V147.1z M279.9,128.3V91.1c-5.3-0.3-8.4-0.5-9.3-0.5
				c-3.7,0-5.6,1.9-5.6,5.7v26.3c0,3.8,1.9,5.7,5.6,5.7H279.9z"/>
			<rect x="316.4" y="70.7" class="st4" width="6.8" height="8.5"/>
			<rect x="316.5" y="85" class="st4" width="6.6" height="49.2"/>
			<path class="st4" d="M361.1,128.5c0,3.8-1.9,5.7-5.7,5.7h-15.4c-3.8,0-5.7-1.9-5.7-5.7v-11.2h6.6v11.1h13.6v-9.8l-17.6-14.4
				c-1.7-1.3-2.5-3.1-2.5-5.3v-8.2c0-3.8,1.9-5.7,5.7-5.7h15.2c3.8,0,5.7,1.9,5.7,5.7v9.8h-6.5v-9.7h-13.6v8.6l17.7,14.4
				c1.7,1.3,2.5,3.1,2.5,5.4V128.5z"/>
			<path class="st4" d="M400,134.2h-6.7V91l-14.8,0.4v42.8h-6.7V55.1h6.7v31.3c2.7-0.3,5.3-0.7,8-1c3.4-0.4,6-0.7,7.9-0.7
				c3.7,0,5.6,1.8,5.6,5.5V134.2z"/>
			<path class="st1" d="M208.2,200.2c0,3.8-1.9,5.7-5.7,5.7h-16c-3.8,0-5.7-1.9-5.7-5.7v-37.8c0-3.8,1.9-5.7,5.7-5.7h16
				c3.8,0,5.7,1.9,5.7,5.7v9.8h-6.6v-9.6h-13.9V200h13.9v-11h6.6V200.2z"/>
			<path class="st1" d="M265.4,205.9h-6.6v-1.4c-2.7,0.4-5.3,0.7-8,1c-3.3,0.4-6,0.6-7.9,0.6c-3.7,0-5.5-1.8-5.5-5.5v-17.9
				c0-3.8,1.9-5.7,5.7-5.7h15.8v-14.8h-14.5v8.4h-6.5v-8.3c0-3.8,1.9-5.7,5.7-5.7h16.2c3.8,0,5.6,1.9,5.6,5.7V205.9z M258.9,199.8
				v-17.4h-15v17.7L258.9,199.8z"/>
			<path class="st1" d="M302.9,200.2c0,3.8-1.9,5.7-5.7,5.7h-15.4c-3.8,0-5.7-1.9-5.7-5.7V189h6.6v11.1h13.6v-9.8l-17.6-14.4
				c-1.7-1.3-2.5-3.1-2.5-5.2v-8.2c0-3.8,1.9-5.7,5.7-5.7h15.2c3.8,0,5.7,1.9,5.7,5.7v9.8h-6.5v-9.7h-13.6v8.6l17.7,14.4
				c1.7,1.3,2.5,3.1,2.5,5.4V200.2z"/>
			<path class="st1" d="M340,200.2c0,3.8-1.9,5.7-5.7,5.7h-15.4c-3.8,0-5.7-1.9-5.7-5.7V189h6.6v11.1h13.6v-9.8l-17.6-14.4
				c-1.7-1.3-2.5-3.1-2.5-5.2v-8.2c0-3.8,1.9-5.7,5.7-5.7h15.2c3.8,0,5.7,1.9,5.7,5.7v9.8h-6.5v-9.7h-13.6v8.6l17.7,14.4
				c1.7,1.3,2.5,3.1,2.5,5.4V200.2z"/>
			<path class="st5" d="M304.8,134.2h-6.6v-118h6.6V134.2z"/>
			<radialGradient id="SVGID_2_" cx="301.4786" cy="17.5823" r="4.8495" gradientUnits="userSpaceOnUse">
				<stop  offset="0" style="stop-color:#FFFFFF"/>
				<stop  offset="1" style="stop-color:#009FE8"/>
			</radialGradient>
			<path class="st6" d="M306.3,17.6c0,2.7-2.2,4.8-4.8,4.8c-2.7,0-4.8-2.2-4.8-4.8c0-2.7,2.2-4.8,4.8-4.8
				C304.2,12.7,306.3,14.9,306.3,17.6z"/>
		</g>
	</g>
	<g>
		<path class="st7" d="M101.1,233.9c-1.7-0.6-4.5-1.5-8.2-1.5c-4.1,0-6.1,1.5-6.1,3.2c0,2,1.9,2.9,7.6,4.9c7.4,2.5,10.5,6,10.5,10.3
			c0,6.4-6.5,11-17.7,11c-4.7,0-9.4-0.9-11.5-1.8l1.8-6.7c2.5,1,6.4,1.8,10.1,1.8c4.5,0,6.6-1.5,6.6-3.6c0-2.1-2.1-3.3-6.9-5
			c-7.4-2.6-11.2-6-11.2-10.2c0-6,6-10.7,16.8-10.7c4.5,0,7.9,0.7,10.1,1.6L101.1,233.9z"/>
		<path class="st7" d="M145.3,261.5h-11l-2.7-8.2h-10.7l-2.5,8.2h-10.7l12.3-35.2h13.5L145.3,261.5z M130.4,247.2l-2.1-7.1
			c-0.6-2.1-1.4-5.2-2-7.4h-0.1c-0.6,2.1-1.4,5.4-1.9,7.4l-2.1,7.1H130.4z"/>
		<path class="st7" d="M151,226.7c3-0.4,7.2-0.7,12.5-0.7c6.2,0,10.7,0.8,13.8,2.8c3,1.8,4.7,4.8,4.7,8.1c0,9.8-10.6,12.1-17.9,12.1
			c-1,0-1.9,0-2.7-0.1v12.6H151V226.7z M161.6,242.6c0.7,0,1.3,0.1,2.4,0.1c4.9,0,7.6-2.2,7.6-5.4c0-3.2-2.6-5-6.8-5
			c-1.4,0-2.6,0.1-3.2,0.3V242.6z"/>
		<path class="st7" d="M188.1,226.7c3-0.4,7.2-0.7,12.5-0.7c6.2,0,10.7,0.8,13.8,2.8c3,1.8,4.7,4.8,4.7,8.1
			c0,9.8-10.6,12.1-17.9,12.1c-1,0-1.9,0-2.7-0.1v12.6h-10.6V226.7z M198.7,242.6c0.7,0,1.3,0.1,2.4,0.1c4.9,0,7.6-2.2,7.6-5.4
			c0-3.2-2.6-5-6.8-5c-1.4,0-2.6,0.1-3.2,0.3V242.6z"/>
		<path class="st7" d="M261.8,243.4c0,12.3-7.9,18.6-19.7,18.6c-12.8,0-19.1-8.4-19.1-18c0-9.9,7.2-18.2,19.8-18.2
			C256.4,225.7,261.8,234.8,261.8,243.4z M234.2,243.8c-0.1,6.7,3,11.6,8.3,11.6c5.4,0,8.1-4.8,8.1-11.7c0-6.2-2.7-11.3-8.1-11.3
			C236.8,232.3,234.2,237.7,234.2,243.8z"/>
		<path class="st7" d="M291.4,245c3.2,1,4.8,3.2,5.9,6.6c1.2,3.8,2.5,8.5,3.4,9.8h-11c-0.6-1-1.8-4.1-2.8-8.3
			c-1-4.3-2.7-5.4-6.2-5.4h-2.1v13.7h-10.6v-34.7c3.3-0.4,7.8-0.7,12.6-0.7c6.2,0,18.4,0.5,18.4,10.2c0,4.1-3.4,7.4-7.7,8.7V245z
			 M281.5,241.8c4.5,0,7.1-2.1,7.1-5c0-4-3.9-4.8-6.4-4.8c-1.7,0-2.8,0.1-3.4,0.2v9.5H281.5z"/>
		<path class="st7" d="M342.7,243.4c0,12.3-7.9,18.6-19.7,18.6c-12.8,0-19.1-8.4-19.1-18c0-9.9,7.2-18.2,19.8-18.2
			C337.3,225.7,342.7,234.8,342.7,243.4z M315.1,243.8c-0.1,6.7,3,11.6,8.3,11.6c5.4,0,8.1-4.8,8.1-11.7c0-6.2-2.7-11.3-8.1-11.3
			C317.8,232.3,315.1,237.7,315.1,243.8z"/>
	</g>
</g>
</svg>
