<?xml version="1.0" encoding="UTF-8" standalone="no"?><!-- Generator: Gravit.io --><svg xmlns="http://www.w3.org/2000/svg" xmlns:xlink="http://www.w3.org/1999/xlink" style="isolation:isolate" viewBox="0 0 312.734 212.734" width="312.734pt" height="212.734pt"><defs><clipPath id="_clipPath_4kTuHIbb3K8QGIeK8ub3rGVJQykafSwZ"><rect width="312.734" height="212.734"/></clipPath></defs><g clip-path="url(#_clipPath_4kTuHIbb3K8QGIeK8ub3rGVJQykafSwZ)"><g><mask id="_mask_BgH2cVvB0cLuSbPQCePq0wZRaM5H7RLW" x="-200%" y="-200%" width="400%" height="400%"><rect x="-200%" y="-200%" width="400%" height="400%" style="fill:white;"/><path d=" M 56.367 156.367 C 56.367 101.267 101.267 56.367 156.367 56.367 C 211.467 56.367 256.367 101.267 256.367 156.367" fill="black" stroke="none"/></mask><path d=" M 56.367 156.367 C 56.367 101.267 101.267 56.367 156.367 56.367 C 211.467 56.367 256.367 101.267 256.367 156.367" fill="none"/><path d=" M 56.367 156.367 C 56.367 101.267 101.267 56.367 156.367 56.367 C 211.467 56.367 256.367 101.267 256.367 156.367" fill="none" mask="url(#_mask_BgH2cVvB0cLuSbPQCePq0wZRaM5H7RLW)" vector-effect="non-scaling-stroke" stroke-width="14" stroke="rgb(246,114,128)" stroke-linejoin="miter" stroke-linecap="butt" stroke-miterlimit="10"/><mask id="_mask_EURhdpm7Vwf1blcR88Icnv71oHdnSoxt" x="-200%" y="-200%" width="400%" height="400%"><rect x="-200%" y="-200%" width="400%" height="400%" style="fill:white;"/><path d=" M 64.267 156.367 C 64.267 105.567 105.567 64.267 156.367 64.267 C 193.316 64.267 225.239 86.115 239.9 117.577 C 245.397 129.371 248.467 142.516 248.467 156.367" fill="black" stroke="none"/></mask><path d=" M 64.267 156.367 C 64.267 105.567 105.567 64.267 156.367 64.267 C 193.316 64.267 225.239 86.115 239.9 117.577 C 245.397 129.371 248.467 142.516 248.467 156.367" fill="none"/><path d=" M 64.267 156.367 C 64.267 105.567 105.567 64.267 156.367 64.267 C 193.316 64.267 225.239 86.115 239.9 117.577 C 245.397 129.371 248.467 142.516 248.467 156.367" fill="none" mask="url(#_mask_EURhdpm7Vwf1blcR88Icnv71oHdnSoxt)" vector-effect="non-scaling-stroke" stroke-width="14" stroke="rgb(242,187,3)" stroke-linejoin="miter" stroke-linecap="butt" stroke-miterlimit="10"/><mask id="_mask_X7aflhs5bNwRnK70frMOS8bKXFqcqN0b" x="-200%" y="-200%" width="400%" height="400%"><rect x="-200%" y="-200%" width="400%" height="400%" style="fill:white;"/><path d=" M 72.167 156.367 C 72.167 109.967 109.967 72.167 156.367 72.167 C 202.767 72.167 240.567 109.967 240.567 156.367" fill="black" stroke="none"/></mask><path d=" M 72.167 156.367 C 72.167 109.967 109.967 72.167 156.367 72.167 C 202.767 72.167 240.567 109.967 240.567 156.367" fill="none"/><path d=" M 72.167 156.367 C 72.167 109.967 109.967 72.167 156.367 72.167 C 202.767 72.167 240.567 109.967 240.567 156.367" fill="none" mask="url(#_mask_X7aflhs5bNwRnK70frMOS8bKXFqcqN0b)" vector-effect="non-scaling-stroke" stroke-width="14" stroke="rgb(218,185,91)" stroke-linejoin="miter" stroke-linecap="butt" stroke-miterlimit="10"/><mask id="_mask_RwphBuynePLtyp6D3e5v0qALLFK6eF9A" x="-200%" y="-200%" width="400%" height="400%"><rect x="-200%" y="-200%" width="400%" height="400%" style="fill:white;"/><path d=" M 80.067 156.367 C 80.067 114.267 114.267 80.067 156.367 80.067 C 198.467 80.067 232.667 114.267 232.667 156.367" fill="black" stroke="none"/></mask><path d=" M 80.067 156.367 C 80.067 114.267 114.267 80.067 156.367 80.067 C 198.467 80.067 232.667 114.267 232.667 156.367" fill="none"/><path d=" M 80.067 156.367 C 80.067 114.267 114.267 80.067 156.367 80.067 C 198.467 80.067 232.667 114.267 232.667 156.367" fill="none" mask="url(#_mask_RwphBuynePLtyp6D3e5v0qALLFK6eF9A)" vector-effect="non-scaling-stroke" stroke-width="14" stroke="rgb(120,193,94)" stroke-linejoin="miter" stroke-linecap="butt" stroke-miterlimit="10"/><mask id="_mask_U0GF8v8zROhqTaI7DKvCD38wWPhPP25d" x="-200%" y="-200%" width="400%" height="400%"><rect x="-200%" y="-200%" width="400%" height="400%" style="fill:white;"/><path d=" M 87.967 156.367 C 87.967 118.667 118.667 87.967 156.367 87.967 C 194.067 87.967 224.767 118.667 224.767 156.367" fill="black" stroke="none"/></mask><path d=" M 87.967 156.367 C 87.967 118.667 118.667 87.967 156.367 87.967 C 194.067 87.967 224.767 118.667 224.767 156.367" fill="none"/><path d=" M 87.967 156.367 C 87.967 118.667 118.667 87.967 156.367 87.967 C 194.067 87.967 224.767 118.667 224.767 156.367" fill="none" mask="url(#_mask_U0GF8v8zROhqTaI7DKvCD38wWPhPP25d)" vector-effect="non-scaling-stroke" stroke-width="14" stroke="rgb(66,191,176)" stroke-linejoin="miter" stroke-linecap="butt" stroke-miterlimit="10"/><mask id="_mask_DuUVc4KGvh5oIeSGvgdtqFZFvasKRdYf" x="-200%" y="-200%" width="400%" height="400%"><rect x="-200%" y="-200%" width="400%" height="400%" style="fill:white;"/><path d=" M 95.867 156.367 C 95.867 122.967 123.067 95.867 156.367 95.867 C 189.767 95.867 216.867 123.067 216.867 156.367" fill="black" stroke="none"/></mask><path d=" M 95.867 156.367 C 95.867 122.967 123.067 95.867 156.367 95.867 C 189.767 95.867 216.867 123.067 216.867 156.367" fill="none"/><path d=" M 95.867 156.367 C 95.867 122.967 123.067 95.867 156.367 95.867 C 189.767 95.867 216.867 123.067 216.867 156.367" fill="none" mask="url(#_mask_DuUVc4KGvh5oIeSGvgdtqFZFvasKRdYf)" vector-effect="non-scaling-stroke" stroke-width="14" stroke="rgb(89,174,203)" stroke-linejoin="miter" stroke-linecap="butt" stroke-miterlimit="10"/><mask id="_mask_NWrsibAUJn8i4DtUITbNI56DjQSn0Sci" x="-200%" y="-200%" width="400%" height="400%"><rect x="-200%" y="-200%" width="400%" height="400%" style="fill:white;"/><path d=" M 103.767 156.367 C 103.767 127.267 127.367 103.767 156.367 103.767 C 169.181 103.767 180.909 108.343 190.023 115.941 C 201.606 125.598 208.967 140.137 208.967 156.367" fill="black" stroke="none"/></mask><path d=" M 103.767 156.367 C 103.767 127.267 127.367 103.767 156.367 103.767 C 169.181 103.767 180.909 108.343 190.023 115.941 C 201.606 125.598 208.967 140.137 208.967 156.367" fill="none"/><path d=" M 103.767 156.367 C 103.767 127.267 127.367 103.767 156.367 103.767 C 169.181 103.767 180.909 108.343 190.023 115.941 C 201.606 125.598 208.967 140.137 208.967 156.367" fill="none" mask="url(#_mask_NWrsibAUJn8i4DtUITbNI56DjQSn0Sci)" vector-effect="non-scaling-stroke" stroke-width="14" stroke="rgb(158,115,187)" stroke-linejoin="miter" stroke-linecap="butt" stroke-miterlimit="10"/></g><g><g><g><g><clipPath id="_clipPath_ZFgMxpuTvXuVTBd9cNRGhwmQLiL3ed9t"><rect x="13.515" y="84.671" width="209.194" height="73.696" transform="matrix(1,0,0,1,0,0)" fill="rgb(255,255,255)"/></clipPath><g clip-path="url(#_clipPath_ZFgMxpuTvXuVTBd9cNRGhwmQLiL3ed9t)"><g><ellipse vector-effect="non-scaling-stroke" cx="41.283500000000004" cy="159.01157142857141" rx="27.767999999999972" ry="20.19657142857136" fill="rgb(210,225,239)" fill-opacity="0.3"/><ellipse vector-effect="non-scaling-stroke" cx="86.9404999999997" cy="152.6732857142856" rx="31.906499999999966" ry="20.19657142857136" fill="rgb(210,225,239)" fill-opacity="0.3"/><ellipse vector-effect="non-scaling-stroke" cx="130.86199999999974" cy="150.41728571428575" rx="44.321999999999974" ry="28.898285714285635" fill="rgb(210,225,239)" fill-opacity="0.3"/><ellipse vector-effect="non-scaling-stroke" cx="187.7329999999995" cy="159.01157142857141" rx="34.976999999999975" ry="25.46057142857137" fill="rgb(210,225,239)" fill-opacity="0.3"/></g></g></g><g><clipPath id="_clipPath_V3qmgUyG8AEfk6Kb6XeGdUGen6td8EJ5"><rect x="1.367" y="64.367" width="267" height="94" transform="matrix(1,0,0,1,0,0)" fill="rgb(255,255,255)"/></clipPath><g clip-path="url(#_clipPath_V3qmgUyG8AEfk6Kb6XeGdUGen6td8EJ5)"><g><g><ellipse vector-effect="non-scaling-stroke" cx="232.98950000000002" cy="158.15214285714285" rx="35.3775" ry="25.782857142857097" fill="rgb(255,255,255)" fill-opacity="0.7"/><ellipse vector-effect="non-scaling-stroke" cx="174.78350000000012" cy="166.4241428571429" rx="40.71750000000003" ry="25.782857142857097" fill="rgb(255,255,255)" fill-opacity="0.7"/><ellipse vector-effect="non-scaling-stroke" cx="118.57999999999981" cy="169.2172857142857" rx="56.60400000000001" ry="36.8479999999999" fill="rgb(255,255,255)" fill-opacity="0.7"/><ellipse vector-effect="non-scaling-stroke" cx="46.089499999999816" cy="158.15214285714285" rx="44.72250000000001" ry="32.443428571428505" fill="rgb(255,255,255)"/></g></g></g></g></g><g><g><rect x="13.515" y="84.671" width="209.194" height="73.696" transform="matrix(1,0,0,1,0,0)" fill="none"/></g><g><clipPath id="_clipPath_SGXugSc9Pgmsq3HpKSRumjAe4wOCw73c"><rect x="1.367" y="64.367" width="267" height="94" transform="matrix(1,0,0,1,0,0)" fill="rgb(255,255,255)"/></clipPath><g clip-path="url(#_clipPath_SGXugSc9Pgmsq3HpKSRumjAe4wOCw73c)"><g><g><ellipse vector-effect="non-scaling-stroke" cx="232.98950000000002" cy="158.15214285714285" rx="35.3775" ry="25.782857142857097" fill="rgb(255,255,255)" fill-opacity="0.7"/><ellipse vector-effect="non-scaling-stroke" cx="174.78350000000012" cy="166.4241428571429" rx="40.71750000000003" ry="25.782857142857097" fill="rgb(255,255,255)" fill-opacity="0.7"/><ellipse vector-effect="non-scaling-stroke" cx="118.57999999999981" cy="169.2172857142857" rx="56.60400000000001" ry="36.8479999999999" fill="rgb(255,255,255)" fill-opacity="0.7"/></g></g></g></g></g></g><g><g><g><rect x="13.515" y="84.671" width="209.194" height="73.696" transform="matrix(1,0,0,1,0,0)" fill="none"/></g><g><clipPath id="_clipPath_KCAPP8GhEnFsTx6BC7mdGi499RzEBMFU"><rect x="1.367" y="64.367" width="267" height="94" transform="matrix(1,0,0,1,0,0)" fill="rgb(255,255,255)"/></clipPath><g clip-path="url(#_clipPath_KCAPP8GhEnFsTx6BC7mdGi499RzEBMFU)"><g><g><ellipse vector-effect="non-scaling-stroke" cx="232.98950000000002" cy="158.15214285714285" rx="35.3775" ry="25.782857142857097" fill="rgb(255,255,255)" fill-opacity="0.7"/><ellipse vector-effect="non-scaling-stroke" cx="174.78350000000012" cy="166.4241428571429" rx="40.71750000000003" ry="25.782857142857097" fill="rgb(255,255,255)" fill-opacity="0.7"/><ellipse vector-effect="non-scaling-stroke" cx="118.57999999999981" cy="169.2172857142857" rx="56.60400000000001" ry="36.8479999999999" fill="rgb(255,255,255)" fill-opacity="0.7"/></g></g></g></g></g><g><g><rect x="13.515" y="84.671" width="209.194" height="73.696" transform="matrix(1,0,0,1,0,0)" fill="none"/></g><g><clipPath id="_clipPath_HaMqiM8JWefM6tsW0oLESjrxnatFgtr2"><rect x="1.367" y="64.367" width="267" height="94" transform="matrix(1,0,0,1,0,0)" fill="rgb(255,255,255)"/></clipPath><g clip-path="url(#_clipPath_HaMqiM8JWefM6tsW0oLESjrxnatFgtr2)"><g><g><ellipse vector-effect="non-scaling-stroke" cx="232.98950000000002" cy="158.15214285714285" rx="35.3775" ry="25.782857142857097" fill="rgb(255,255,255)" fill-opacity="0.7"/><ellipse vector-effect="non-scaling-stroke" cx="174.78350000000012" cy="166.4241428571429" rx="40.71750000000003" ry="25.782857142857097" fill="rgb(255,255,255)" fill-opacity="0.7"/><ellipse vector-effect="non-scaling-stroke" cx="118.57999999999981" cy="169.2172857142857" rx="56.60400000000001" ry="36.8479999999999" fill="rgb(255,255,255)" fill-opacity="0.7"/></g></g></g></g></g></g></g></g></svg>