<?xml version="1.0" encoding="UTF-8" standalone="no"?><!-- Generator: Gravit.io --><svg xmlns="http://www.w3.org/2000/svg" xmlns:xlink="http://www.w3.org/1999/xlink" style="isolation:isolate" viewBox="0 0 312.734 170.766" width="312.734pt" height="170.766pt"><defs><clipPath id="_clipPath_LL5aVpysjteBt3fzVATsF39VbdXlEyO7"><rect width="312.734" height="170.766"/></clipPath></defs><g clip-path="url(#_clipPath_LL5aVpysjteBt3fzVATsF39VbdXlEyO7)"><clipPath id="_clipPath_hPIUvbnlOPeKs4T6m9OVYv1nMdR4f8GS"><rect x="0" y="0" width="312.734" height="212.734" transform="matrix(1,0,0,1,0,0)" fill="rgb(255,255,255)"/></clipPath><g clip-path="url(#_clipPath_hPIUvbnlOPeKs4T6m9OVYv1nMdR4f8GS)"><g><clipPath id="_clipPath_Pgz8FREeUKYMB8jDzA4y8bzMT4nHxbCT"><rect x="0" y="47.167" width="312.734" height="123.667" transform="matrix(1,0,0,1,0,0)" fill="rgb(255,255,255)"/></clipPath><g clip-path="url(#_clipPath_Pgz8FREeUKYMB8jDzA4y8bzMT4nHxbCT)"><g><rect x="13.65" y="158.333" width="284.473" height="54.401" transform="matrix(1,0,0,1,0,0)" fill="rgb(255,255,255)"/><clipPath id="_clipPath_GiEkNobZdUgQTTD45fdQEOPBujcsmeaa"><rect x="0" y="0" width="312.734" height="212.734" transform="matrix(1,0,0,1,0,0)" fill="rgb(255,255,255)"/></clipPath><g clip-path="url(#_clipPath_GiEkNobZdUgQTTD45fdQEOPBujcsmeaa)"><g><g><g><path d=" M 56.367 156.367 C 56.367 101.267 101.267 56.367 156.367 56.367 C 211.467 56.367 256.367 101.267 256.367 156.367" fill="none"/><clipPath id="_clipPath_FuacJ4Ech2ktVRY9qnTYOzvoCG3uOAmv"><path d=" M -625.468 -425.468 L 625.468 -425.468 L 625.468 425.468 L -625.468 425.468 L -625.468 -425.468 Z  M 56.367 156.367 C 56.367 101.267 101.267 56.367 156.367 56.367 C 211.467 56.367 256.367 101.267 256.367 156.367 L 56.367 156.367 Z " fill-rule="evenodd" fill="rgb(255,255,255)"/></clipPath><g clip-path="url(#_clipPath_FuacJ4Ech2ktVRY9qnTYOzvoCG3uOAmv)"><g><path d=" M 56.367 156.367 C 56.367 101.267 101.267 56.367 156.367 56.367 C 211.467 56.367 256.367 101.267 256.367 156.367" fill="none"/><clipPath id="_clipPath_9eLHh7DqLTT84N5fIUxKHBcLwrEPivBN"><path d=" M -625.468 -425.468 L 625.468 -425.468 L 625.468 425.468 L -625.468 425.468 L -625.468 -425.468 Z  M 56.367 156.367 C 56.367 101.267 101.267 56.367 156.367 56.367 C 211.467 56.367 256.367 101.267 256.367 156.367 L 56.367 156.367 Z " fill-rule="evenodd" fill="rgb(255,255,255)"/></clipPath><g clip-path="url(#_clipPath_9eLHh7DqLTT84N5fIUxKHBcLwrEPivBN)"><mask id="_mask_4FUnpjyPVAPiSDy3e5Y7My7xbIFcBrMZ" x="-200%" y="-200%" width="400%" height="400%"><rect x="-200%" y="-200%" width="400%" height="400%" style="fill:white;"/><path d=" M 56.367 156.367 C 56.367 101.267 101.267 56.367 156.367 56.367 C 211.467 56.367 256.367 101.267 256.367 156.367" fill="black" stroke="none"/></mask><path d=" M 56.367 156.367 C 56.367 101.267 101.267 56.367 156.367 56.367 C 211.467 56.367 256.367 101.267 256.367 156.367" fill="none"/><path d=" M 56.367 156.367 C 56.367 101.267 101.267 56.367 156.367 56.367 C 211.467 56.367 256.367 101.267 256.367 156.367" fill="none" mask="url(#_mask_4FUnpjyPVAPiSDy3e5Y7My7xbIFcBrMZ)" vector-effect="non-scaling-stroke" stroke-width="14" stroke="rgb(246,114,128)" stroke-opacity="10000" stroke-linejoin="miter" stroke-linecap="butt" stroke-miterlimit="10"/></g></g></g><path d=" M 64.267 156.367 C 64.267 105.567 105.567 64.267 156.367 64.267 C 193.316 64.267 225.239 86.115 239.9 117.577 C 245.397 129.371 248.467 142.516 248.467 156.367" fill="none"/><clipPath id="_clipPath_pNOnzFn6GcVscmInEORGpN8qAuFxwSqH"><path d=" M -625.468 -425.468 L 625.468 -425.468 L 625.468 425.468 L -625.468 425.468 L -625.468 -425.468 Z  M 64.267 156.367 C 64.267 105.567 105.567 64.267 156.367 64.267 C 193.316 64.267 225.239 86.115 239.9 117.577 C 245.397 129.371 248.467 142.516 248.467 156.367 L 64.267 156.367 Z " fill-rule="evenodd" fill="rgb(255,255,255)"/></clipPath><g clip-path="url(#_clipPath_pNOnzFn6GcVscmInEORGpN8qAuFxwSqH)"><g><path d=" M 64.267 156.367 C 64.267 105.567 105.567 64.267 156.367 64.267 C 193.316 64.267 225.239 86.115 239.9 117.577 C 245.397 129.371 248.467 142.516 248.467 156.367" fill="none"/><clipPath id="_clipPath_y2p6vKOCiEf6OCPpblEVb8dKKLdv73lM"><path d=" M -625.468 -425.468 L 625.468 -425.468 L 625.468 425.468 L -625.468 425.468 L -625.468 -425.468 Z  M 64.267 156.367 C 64.267 105.567 105.567 64.267 156.367 64.267 C 193.316 64.267 225.239 86.115 239.9 117.577 C 245.397 129.371 248.467 142.516 248.467 156.367 L 64.267 156.367 Z " fill-rule="evenodd" fill="rgb(255,255,255)"/></clipPath><g clip-path="url(#_clipPath_y2p6vKOCiEf6OCPpblEVb8dKKLdv73lM)"><mask id="_mask_33QkxcsEC3RqQ3C343uJkxTi8HxAAyHq" x="-200%" y="-200%" width="400%" height="400%"><rect x="-200%" y="-200%" width="400%" height="400%" style="fill:white;"/><path d=" M 64.267 156.367 C 64.267 105.567 105.567 64.267 156.367 64.267 C 193.316 64.267 225.239 86.115 239.9 117.577 C 245.397 129.371 248.467 142.516 248.467 156.367" fill="black" stroke="none"/></mask><path d=" M 64.267 156.367 C 64.267 105.567 105.567 64.267 156.367 64.267 C 193.316 64.267 225.239 86.115 239.9 117.577 C 245.397 129.371 248.467 142.516 248.467 156.367" fill="none"/><path d=" M 64.267 156.367 C 64.267 105.567 105.567 64.267 156.367 64.267 C 193.316 64.267 225.239 86.115 239.9 117.577 C 245.397 129.371 248.467 142.516 248.467 156.367" fill="none" mask="url(#_mask_33QkxcsEC3RqQ3C343uJkxTi8HxAAyHq)" vector-effect="non-scaling-stroke" stroke-width="14" stroke="rgb(242,187,3)" stroke-opacity="10000" stroke-linejoin="miter" stroke-linecap="butt" stroke-miterlimit="10"/></g></g></g><path d=" M 72.167 156.367 C 72.167 109.967 109.967 72.167 156.367 72.167 C 202.767 72.167 240.567 109.967 240.567 156.367" fill="none"/><clipPath id="_clipPath_wjoJQm38ZmkHesUWBGSRfGmiB0IrLLeB"><path d=" M -625.468 -425.468 L 625.468 -425.468 L 625.468 425.468 L -625.468 425.468 L -625.468 -425.468 Z  M 72.167 156.367 C 72.167 109.967 109.967 72.167 156.367 72.167 C 202.767 72.167 240.567 109.967 240.567 156.367 L 72.167 156.367 Z " fill-rule="evenodd" fill="rgb(255,255,255)"/></clipPath><g clip-path="url(#_clipPath_wjoJQm38ZmkHesUWBGSRfGmiB0IrLLeB)"><g><path d=" M 72.167 156.367 C 72.167 109.967 109.967 72.167 156.367 72.167 C 202.767 72.167 240.567 109.967 240.567 156.367" fill="none"/><clipPath id="_clipPath_UNEyGFJG66qn2OzuO3ODyx864QN1n9RZ"><path d=" M -625.468 -425.468 L 625.468 -425.468 L 625.468 425.468 L -625.468 425.468 L -625.468 -425.468 Z  M 72.167 156.367 C 72.167 109.967 109.967 72.167 156.367 72.167 C 202.767 72.167 240.567 109.967 240.567 156.367 L 72.167 156.367 Z " fill-rule="evenodd" fill="rgb(255,255,255)"/></clipPath><g clip-path="url(#_clipPath_UNEyGFJG66qn2OzuO3ODyx864QN1n9RZ)"><mask id="_mask_SryzPcVzUqvi3doNPlldegY8beRe69jU" x="-200%" y="-200%" width="400%" height="400%"><rect x="-200%" y="-200%" width="400%" height="400%" style="fill:white;"/><path d=" M 72.167 156.367 C 72.167 109.967 109.967 72.167 156.367 72.167 C 202.767 72.167 240.567 109.967 240.567 156.367" fill="black" stroke="none"/></mask><path d=" M 72.167 156.367 C 72.167 109.967 109.967 72.167 156.367 72.167 C 202.767 72.167 240.567 109.967 240.567 156.367" fill="none"/><path d=" M 72.167 156.367 C 72.167 109.967 109.967 72.167 156.367 72.167 C 202.767 72.167 240.567 109.967 240.567 156.367" fill="none" mask="url(#_mask_SryzPcVzUqvi3doNPlldegY8beRe69jU)" vector-effect="non-scaling-stroke" stroke-width="14" stroke="rgb(218,185,91)" stroke-opacity="10000" stroke-linejoin="miter" stroke-linecap="butt" stroke-miterlimit="10"/></g></g></g><path d=" M 80.067 156.367 C 80.067 114.267 114.267 80.067 156.367 80.067 C 198.467 80.067 232.667 114.267 232.667 156.367" fill="none"/><clipPath id="_clipPath_aucmWRaAFH1TPDzLGPzQ0IHnn6Xp3BvX"><path d=" M -625.468 -425.468 L 625.468 -425.468 L 625.468 425.468 L -625.468 425.468 L -625.468 -425.468 Z  M 80.067 156.367 C 80.067 114.267 114.267 80.067 156.367 80.067 C 198.467 80.067 232.667 114.267 232.667 156.367 L 80.067 156.367 Z " fill-rule="evenodd" fill="rgb(255,255,255)"/></clipPath><g clip-path="url(#_clipPath_aucmWRaAFH1TPDzLGPzQ0IHnn6Xp3BvX)"><g><path d=" M 80.067 156.367 C 80.067 114.267 114.267 80.067 156.367 80.067 C 198.467 80.067 232.667 114.267 232.667 156.367" fill="none"/><clipPath id="_clipPath_47jdGAOnzp0SIyiw2WJMbXKg4MdTI8RS"><path d=" M -625.468 -425.468 L 625.468 -425.468 L 625.468 425.468 L -625.468 425.468 L -625.468 -425.468 Z  M 80.067 156.367 C 80.067 114.267 114.267 80.067 156.367 80.067 C 198.467 80.067 232.667 114.267 232.667 156.367 L 80.067 156.367 Z " fill-rule="evenodd" fill="rgb(255,255,255)"/></clipPath><g clip-path="url(#_clipPath_47jdGAOnzp0SIyiw2WJMbXKg4MdTI8RS)"><mask id="_mask_5PmvNAMfS2Tc7DdE5Ml6HUUaH0hBIHAK" x="-200%" y="-200%" width="400%" height="400%"><rect x="-200%" y="-200%" width="400%" height="400%" style="fill:white;"/><path d=" M 80.067 156.367 C 80.067 114.267 114.267 80.067 156.367 80.067 C 198.467 80.067 232.667 114.267 232.667 156.367" fill="black" stroke="none"/></mask><path d=" M 80.067 156.367 C 80.067 114.267 114.267 80.067 156.367 80.067 C 198.467 80.067 232.667 114.267 232.667 156.367" fill="none"/><path d=" M 80.067 156.367 C 80.067 114.267 114.267 80.067 156.367 80.067 C 198.467 80.067 232.667 114.267 232.667 156.367" fill="none" mask="url(#_mask_5PmvNAMfS2Tc7DdE5Ml6HUUaH0hBIHAK)" vector-effect="non-scaling-stroke" stroke-width="14" stroke="rgb(120,193,94)" stroke-opacity="10000" stroke-linejoin="miter" stroke-linecap="butt" stroke-miterlimit="10"/></g></g></g><path d=" M 87.967 156.367 C 87.967 118.667 118.667 87.967 156.367 87.967 C 194.067 87.967 224.767 118.667 224.767 156.367" fill="none"/><clipPath id="_clipPath_JcNMmF9eXsvFsrCYmZaynj4X6F33Mglf"><path d=" M -625.468 -425.468 L 625.468 -425.468 L 625.468 425.468 L -625.468 425.468 L -625.468 -425.468 Z  M 87.967 156.367 C 87.967 118.667 118.667 87.967 156.367 87.967 C 194.067 87.967 224.767 118.667 224.767 156.367 L 87.967 156.367 Z " fill-rule="evenodd" fill="rgb(255,255,255)"/></clipPath><g clip-path="url(#_clipPath_JcNMmF9eXsvFsrCYmZaynj4X6F33Mglf)"><g><path d=" M 87.967 156.367 C 87.967 118.667 118.667 87.967 156.367 87.967 C 194.067 87.967 224.767 118.667 224.767 156.367" fill="none"/><clipPath id="_clipPath_fLXcU2uzTjPQ7FhixEbRllXPzMasQLy4"><path d=" M -625.468 -425.468 L 625.468 -425.468 L 625.468 425.468 L -625.468 425.468 L -625.468 -425.468 Z  M 87.967 156.367 C 87.967 118.667 118.667 87.967 156.367 87.967 C 194.067 87.967 224.767 118.667 224.767 156.367 L 87.967 156.367 Z " fill-rule="evenodd" fill="rgb(255,255,255)"/></clipPath><g clip-path="url(#_clipPath_fLXcU2uzTjPQ7FhixEbRllXPzMasQLy4)"><mask id="_mask_nY5kjIjldLQKpFdWEvl7Adztj8srq8ym" x="-200%" y="-200%" width="400%" height="400%"><rect x="-200%" y="-200%" width="400%" height="400%" style="fill:white;"/><path d=" M 87.967 156.367 C 87.967 118.667 118.667 87.967 156.367 87.967 C 194.067 87.967 224.767 118.667 224.767 156.367" fill="black" stroke="none"/></mask><path d=" M 87.967 156.367 C 87.967 118.667 118.667 87.967 156.367 87.967 C 194.067 87.967 224.767 118.667 224.767 156.367" fill="none"/><path d=" M 87.967 156.367 C 87.967 118.667 118.667 87.967 156.367 87.967 C 194.067 87.967 224.767 118.667 224.767 156.367" fill="none" mask="url(#_mask_nY5kjIjldLQKpFdWEvl7Adztj8srq8ym)" vector-effect="non-scaling-stroke" stroke-width="14" stroke="rgb(66,191,176)" stroke-opacity="10000" stroke-linejoin="miter" stroke-linecap="butt" stroke-miterlimit="10"/></g></g></g><path d=" M 95.867 156.367 C 95.867 122.967 123.067 95.867 156.367 95.867 C 189.767 95.867 216.867 123.067 216.867 156.367" fill="none"/><clipPath id="_clipPath_nsUxWaZ0h9N17OPr9E4GA5rCX2O4lOmV"><path d=" M -625.468 -425.468 L 625.468 -425.468 L 625.468 425.468 L -625.468 425.468 L -625.468 -425.468 Z  M 95.867 156.367 C 95.867 122.967 123.067 95.867 156.367 95.867 C 189.767 95.867 216.867 123.067 216.867 156.367 L 95.867 156.367 Z " fill-rule="evenodd" fill="rgb(255,255,255)"/></clipPath><g clip-path="url(#_clipPath_nsUxWaZ0h9N17OPr9E4GA5rCX2O4lOmV)"><g><path d=" M 95.867 156.367 C 95.867 122.967 123.067 95.867 156.367 95.867 C 189.767 95.867 216.867 123.067 216.867 156.367" fill="none"/><clipPath id="_clipPath_S39LCoQi2P1mxkLomSNsul0zSn76kg5v"><path d=" M -625.468 -425.468 L 625.468 -425.468 L 625.468 425.468 L -625.468 425.468 L -625.468 -425.468 Z  M 95.867 156.367 C 95.867 122.967 123.067 95.867 156.367 95.867 C 189.767 95.867 216.867 123.067 216.867 156.367 L 95.867 156.367 Z " fill-rule="evenodd" fill="rgb(255,255,255)"/></clipPath><g clip-path="url(#_clipPath_S39LCoQi2P1mxkLomSNsul0zSn76kg5v)"><mask id="_mask_1hHPpQKu2K9We6Q0RF4FVro2XtLyHw0k" x="-200%" y="-200%" width="400%" height="400%"><rect x="-200%" y="-200%" width="400%" height="400%" style="fill:white;"/><path d=" M 95.867 156.367 C 95.867 122.967 123.067 95.867 156.367 95.867 C 189.767 95.867 216.867 123.067 216.867 156.367" fill="black" stroke="none"/></mask><path d=" M 95.867 156.367 C 95.867 122.967 123.067 95.867 156.367 95.867 C 189.767 95.867 216.867 123.067 216.867 156.367" fill="none"/><path d=" M 95.867 156.367 C 95.867 122.967 123.067 95.867 156.367 95.867 C 189.767 95.867 216.867 123.067 216.867 156.367" fill="none" mask="url(#_mask_1hHPpQKu2K9We6Q0RF4FVro2XtLyHw0k)" vector-effect="non-scaling-stroke" stroke-width="14" stroke="rgb(89,174,203)" stroke-opacity="10000" stroke-linejoin="miter" stroke-linecap="butt" stroke-miterlimit="10"/></g></g></g><path d=" M 103.767 156.367 C 103.767 127.267 127.367 103.767 156.367 103.767 C 169.181 103.767 180.909 108.343 190.023 115.941 C 201.606 125.598 208.967 140.137 208.967 156.367" fill="none"/><clipPath id="_clipPath_7xWqy31dkuJOZqAQclNYj9ZiXYr4U0Vs"><path d=" M -625.468 -425.468 L 625.468 -425.468 L 625.468 425.468 L -625.468 425.468 L -625.468 -425.468 Z  M 103.767 156.367 C 103.767 127.267 127.367 103.767 156.367 103.767 C 169.181 103.767 180.909 108.343 190.023 115.941 C 201.606 125.598 208.967 140.137 208.967 156.367 L 103.767 156.367 Z " fill-rule="evenodd" fill="rgb(255,255,255)"/></clipPath><g clip-path="url(#_clipPath_7xWqy31dkuJOZqAQclNYj9ZiXYr4U0Vs)"><g><path d=" M 103.767 156.367 C 103.767 127.267 127.367 103.767 156.367 103.767 C 169.181 103.767 180.909 108.343 190.023 115.941 C 201.606 125.598 208.967 140.137 208.967 156.367" fill="none"/><clipPath id="_clipPath_3aBGpnbaep6QXGqdoNgpapnkUCHvAisy"><path d=" M -625.468 -425.468 L 625.468 -425.468 L 625.468 425.468 L -625.468 425.468 L -625.468 -425.468 Z  M 103.767 156.367 C 103.767 127.267 127.367 103.767 156.367 103.767 C 169.181 103.767 180.909 108.343 190.023 115.941 C 201.606 125.598 208.967 140.137 208.967 156.367 L 103.767 156.367 Z " fill-rule="evenodd" fill="rgb(255,255,255)"/></clipPath><g clip-path="url(#_clipPath_3aBGpnbaep6QXGqdoNgpapnkUCHvAisy)"><mask id="_mask_fdb8eYBYIZHXKeEY2qUiZYuLIJKucFjF" x="-200%" y="-200%" width="400%" height="400%"><rect x="-200%" y="-200%" width="400%" height="400%" style="fill:white;"/><path d=" M 103.767 156.367 C 103.767 127.267 127.367 103.767 156.367 103.767 C 169.181 103.767 180.909 108.343 190.023 115.941 C 201.606 125.598 208.967 140.137 208.967 156.367" fill="black" stroke="none"/></mask><path d=" M 103.767 156.367 C 103.767 127.267 127.367 103.767 156.367 103.767 C 169.181 103.767 180.909 108.343 190.023 115.941 C 201.606 125.598 208.967 140.137 208.967 156.367" fill="none"/><path d=" M 103.767 156.367 C 103.767 127.267 127.367 103.767 156.367 103.767 C 169.181 103.767 180.909 108.343 190.023 115.941 C 201.606 125.598 208.967 140.137 208.967 156.367" fill="none" mask="url(#_mask_fdb8eYBYIZHXKeEY2qUiZYuLIJKucFjF)" vector-effect="non-scaling-stroke" stroke-width="14" stroke="rgb(158,115,187)" stroke-opacity="10000" stroke-linejoin="miter" stroke-linecap="butt" stroke-miterlimit="10"/></g></g></g></g><g><g><g><g><clipPath id="_clipPath_4gJu80K7ksk4j5yulotb4mFewv2WAZMN"><rect x="13.515" y="84.671" width="209.194" height="73.696" transform="matrix(1,0,0,1,0,0)" fill="rgb(255,255,255)"/></clipPath><g clip-path="url(#_clipPath_4gJu80K7ksk4j5yulotb4mFewv2WAZMN)"><g><g><g><ellipse vector-effect="non-scaling-stroke" cx="41.28350000000002" cy="159.01157142857136" rx="27.767999999999965" ry="20.19657142857136" fill="rgb(210,225,239)" fill-opacity="0.3"/><ellipse vector-effect="non-scaling-stroke" cx="86.9404999999997" cy="152.67328571428556" rx="31.906499999999966" ry="20.19657142857136" fill="rgb(210,225,239)" fill-opacity="0.3"/><ellipse vector-effect="non-scaling-stroke" cx="130.8619999999997" cy="150.4172857142857" rx="44.321999999999974" ry="28.898285714285635" fill="rgb(210,225,239)" fill-opacity="0.3"/><ellipse vector-effect="non-scaling-stroke" cx="187.73299999999946" cy="159.01157142857136" rx="34.976999999999975" ry="25.46057142857137" fill="rgb(210,225,239)" fill-opacity="0.3"/></g></g></g></g></g><g><clipPath id="_clipPath_r8BpW0UCzJW1aTxQ6T3TzShYzttnXZs5"><rect x="0" y="64.367" width="267" height="94" transform="matrix(1,0,0,1,0,0)" fill="rgb(255,255,255)"/></clipPath><g clip-path="url(#_clipPath_r8BpW0UCzJW1aTxQ6T3TzShYzttnXZs5)"><g><g><g><g><ellipse vector-effect="non-scaling-stroke" cx="231.62249999999995" cy="158.1521428571428" rx="35.37749999999998" ry="25.782857142857097" fill="rgb(255,255,255)" fill-opacity="0.7"/><ellipse vector-effect="non-scaling-stroke" cx="173.41650000000007" cy="166.42414285714284" rx="40.71750000000003" ry="25.782857142857097" fill="rgb(255,255,255)" fill-opacity="0.7"/><ellipse vector-effect="non-scaling-stroke" cx="117.2129999999998" cy="169.21728571428565" rx="56.604" ry="36.8479999999999" fill="rgb(255,255,255)" fill-opacity="0.7"/></g></g></g></g></g></g></g><g><g><rect x="13.515" y="84.671" width="209.194" height="73.696" transform="matrix(1,0,0,1,0,0)" fill="none"/></g><g><clipPath id="_clipPath_m8poh4joJOKllgvTnZIRhHE0Rzg8wj2p"><rect x="0" y="64.367" width="267" height="94" transform="matrix(1,0,0,1,0,0)" fill="rgb(255,255,255)"/></clipPath><g clip-path="url(#_clipPath_m8poh4joJOKllgvTnZIRhHE0Rzg8wj2p)"><g><g><g><g><ellipse vector-effect="non-scaling-stroke" cx="231.62249999999995" cy="158.1521428571428" rx="35.37749999999998" ry="25.782857142857097" fill="rgb(255,255,255)" fill-opacity="0.7"/><ellipse vector-effect="non-scaling-stroke" cx="173.41650000000007" cy="166.42414285714284" rx="40.71750000000003" ry="25.782857142857097" fill="rgb(255,255,255)" fill-opacity="0.7"/><ellipse vector-effect="non-scaling-stroke" cx="117.2129999999998" cy="169.21728571428565" rx="56.604" ry="36.8479999999999" fill="rgb(255,255,255)" fill-opacity="0.7"/></g></g></g></g></g></g></g></g><g><g><g><rect x="13.515" y="84.671" width="209.194" height="73.696" transform="matrix(1,0,0,1,0,0)" fill="none"/></g></g><g><g><rect x="13.515" y="84.671" width="209.194" height="73.696" transform="matrix(1,0,0,1,0,0)" fill="none"/></g><g><g><g><g><ellipse vector-effect="non-scaling-stroke" cx="231.62249999999995" cy="158.1521428571428" rx="35.37749999999998" ry="25.782857142857097" fill="rgb(255,255,255)" fill-opacity="0.7"/><ellipse vector-effect="non-scaling-stroke" cx="276.35649999999987" cy="164.1521428571428" rx="35.3775" ry="25.782857142857097" fill="rgb(255,255,255)"/><ellipse vector-effect="non-scaling-stroke" cx="173.41650000000007" cy="166.42414285714284" rx="40.71750000000003" ry="25.782857142857097" fill="rgb(255,255,255)" fill-opacity="0.7"/><ellipse vector-effect="non-scaling-stroke" cx="117.2129999999998" cy="169.21728571428565" rx="56.604" ry="36.8479999999999" fill="rgb(255,255,255)" fill-opacity="0.7"/></g></g></g></g></g></g></g></g></g></g></g></g></g></g><ellipse vector-effect="non-scaling-stroke" cx="45.35549999999997" cy="158.15214285714288" rx="44.7225" ry="32.443428571428484" fill="rgb(255,255,255)"/></g></svg>