<?xml version="1.0" encoding="UTF-8" standalone="no"?><!-- Generator: Gravit.io --><svg xmlns="http://www.w3.org/2000/svg" xmlns:xlink="http://www.w3.org/1999/xlink" style="isolation:isolate" viewBox="0 0 312.734 170.766" width="312.734pt" height="170.766pt"><defs><clipPath id="_clipPath_qXdDGpYjdt8OV4B328uQaeUQga8VwIxr"><rect width="312.734" height="170.766"/></clipPath></defs><g clip-path="url(#_clipPath_qXdDGpYjdt8OV4B328uQaeUQga8VwIxr)"><clipPath id="_clipPath_6LRnI5sH80SuLPlUB6wyvnTSlXHkqFVr"><rect x="0" y="0" width="312.734" height="170.766" transform="matrix(1,0,0,1,0,0)" fill="rgb(255,255,255)"/></clipPath><g clip-path="url(#_clipPath_6LRnI5sH80SuLPlUB6wyvnTSlXHkqFVr)"><g><path d=" M 21.554 135.306 C 21.577 120.459 41.219 108.41 65.408 108.41 C 89.612 108.41 109.263 120.473 109.263 135.333 C 109.263 150.192 89.612 162.256 65.408 162.256 C 41.204 162.256 21.554 150.192 21.554 135.333 L 65.408 135.333 L 21.554 135.306 Z " fill="rgb(255,255,255)" fill-opacity="0.5"/><ellipse vector-effect="non-scaling-stroke" cx="164.7602903920584" cy="136.72933699208977" rx="34.4060403552742" ry="28.584885531152764" fill="rgb(255,255,255)" fill-opacity="0.1"/><ellipse vector-effect="non-scaling-stroke" cx="106.5249671752332" cy="138.76825522540148" rx="34.40604035527423" ry="24.959470349198398" fill="rgb(255,255,255)" fill-opacity="0.1"/><ellipse vector-effect="non-scaling-stroke" cx="216.43568272491117" cy="137.21150465548823" rx="36.117619455737184" ry="30.006882719990756" fill="rgb(255,255,255)" fill-opacity="0.5"/><clipPath id="_clipPath_2J664jYotLuREiWiJoXLujVi3FGBvLii"><rect x="0" y="-48" width="312.734" height="212.734" transform="matrix(1,0,0,1,0,0)" fill="rgb(255,255,255)"/></clipPath><g clip-path="url(#_clipPath_2J664jYotLuREiWiJoXLujVi3FGBvLii)"><g><g><clipPath id="_clipPath_OJL3VMrf3U0ldxOCS3h8SkMeMmlz0ufG"><rect x="0" y="-0.833" width="312.734" height="123.667" transform="matrix(1,0,0,1,0,0)" fill="rgb(255,255,255)"/></clipPath><g clip-path="url(#_clipPath_OJL3VMrf3U0ldxOCS3h8SkMeMmlz0ufG)"><g><g><clipPath id="_clipPath_ytGol7uCbpdAsrTbaTjYRMrDAbWOiy1B"><rect x="0" y="-48" width="312.734" height="212.734" transform="matrix(1,0,0,1,0,0)" fill="rgb(255,255,255)"/></clipPath><g clip-path="url(#_clipPath_ytGol7uCbpdAsrTbaTjYRMrDAbWOiy1B)"><g><g><g><g><path d=" M 56.367 108.367 C 56.367 53.267 101.267 8.367 156.367 8.367 C 211.467 8.367 256.367 53.267 256.367 108.367" fill="none"/><clipPath id="_clipPath_0dGkS7eKw2Mw5semDY7HN78ZQb5KDBlU"><path d=" M -625.468 -473.468 L 625.468 -473.468 L 625.468 377.468 L -625.468 377.468 L -625.468 -473.468 L -625.468 -473.468 Z  M 56.367 108.367 C 56.367 53.267 101.267 8.367 156.367 8.367 C 211.467 8.367 256.367 53.267 256.367 108.367 L 56.367 108.367 L 56.367 108.367 Z " fill-rule="evenodd" fill="rgb(255,255,255)"/></clipPath><g clip-path="url(#_clipPath_0dGkS7eKw2Mw5semDY7HN78ZQb5KDBlU)"><g><g><path d=" M 56.367 108.367 C 56.367 53.267 101.267 8.367 156.367 8.367 C 211.467 8.367 256.367 53.267 256.367 108.367" fill="none"/><clipPath id="_clipPath_q2Vktgc1jbnLeB7OZqMWoTJ2P7HNW196"><path d=" M -625.468 -473.468 L 625.468 -473.468 L 625.468 377.468 L -625.468 377.468 L -625.468 -473.468 L -625.468 -473.468 Z  M 56.367 108.367 C 56.367 53.267 101.267 8.367 156.367 8.367 C 211.467 8.367 256.367 53.267 256.367 108.367 L 56.367 108.367 L 56.367 108.367 Z " fill-rule="evenodd" fill="rgb(255,255,255)"/></clipPath><g clip-path="url(#_clipPath_q2Vktgc1jbnLeB7OZqMWoTJ2P7HNW196)"><g><path d=" M 56.367 108.367 C 56.367 53.267 101.267 8.367 156.367 8.367 C 211.467 8.367 256.367 53.267 256.367 108.367" fill="none"/><clipPath id="_clipPath_sgnku4FgQAvOS7O1DJTayX046iEVY3dq"><path d=" M -625.468 -341.532 L 625.468 -341.532 L 625.468 341.532 L -625.468 341.532 L -625.468 -341.532 Z  M 56.367 108.367 C 56.367 53.267 101.267 8.367 156.367 8.367 C 211.467 8.367 256.367 53.267 256.367 108.367 L 56.367 108.367 Z " fill-rule="evenodd" fill="rgb(255,255,255)"/></clipPath><g clip-path="url(#_clipPath_sgnku4FgQAvOS7O1DJTayX046iEVY3dq)"><mask id="_mask_JE8vcmWVu9D34ag08ZYMxcnYbI3WnpcX" x="-200%" y="-200%" width="400%" height="400%"><rect x="-200%" y="-200%" width="400%" height="400%" style="fill:white;"/><path d=" M 56.367 108.367 C 56.367 53.267 101.267 8.367 156.367 8.367 C 211.467 8.367 256.367 53.267 256.367 108.367" fill="black" stroke="none"/></mask><path d=" M 56.367 108.367 C 56.367 53.267 101.267 8.367 156.367 8.367 C 211.467 8.367 256.367 53.267 256.367 108.367" fill="none"/><path d=" M 56.367 108.367 C 56.367 53.267 101.267 8.367 156.367 8.367 C 211.467 8.367 256.367 53.267 256.367 108.367" fill="none" mask="url(#_mask_JE8vcmWVu9D34ag08ZYMxcnYbI3WnpcX)" vector-effect="non-scaling-stroke" stroke-width="14" stroke="rgb(246,114,128)" stroke-opacity="1000000" stroke-linejoin="miter" stroke-linecap="butt" stroke-miterlimit="10"/></g></g></g></g></g></g><path d=" M 64.267 108.367 C 64.267 57.567 105.567 16.267 156.367 16.267 C 193.316 16.267 225.239 38.115 239.9 69.577 C 245.397 81.371 248.467 94.516 248.467 108.367" fill="none"/><clipPath id="_clipPath_PYApLR6P8dRpLCJbfBlev3AfCafxRqCa"><path d=" M -625.468 -473.468 L 625.468 -473.468 L 625.468 377.468 L -625.468 377.468 L -625.468 -473.468 L -625.468 -473.468 Z  M 64.267 108.367 C 64.267 57.567 105.567 16.267 156.367 16.267 C 193.316 16.267 225.239 38.115 239.9 69.577 C 245.397 81.371 248.467 94.516 248.467 108.367 L 64.267 108.367 L 64.267 108.367 Z " fill-rule="evenodd" fill="rgb(255,255,255)"/></clipPath><g clip-path="url(#_clipPath_PYApLR6P8dRpLCJbfBlev3AfCafxRqCa)"><g><g><path d=" M 64.267 108.367 C 64.267 57.567 105.567 16.267 156.367 16.267 C 193.316 16.267 225.239 38.115 239.9 69.577 C 245.397 81.371 248.467 94.516 248.467 108.367" fill="none"/><clipPath id="_clipPath_NgwSh1vkDICbOX5vvdW1ufUUSm3okrQE"><path d=" M -625.468 -473.468 L 625.468 -473.468 L 625.468 377.468 L -625.468 377.468 L -625.468 -473.468 L -625.468 -473.468 Z  M 64.267 108.367 C 64.267 57.567 105.567 16.267 156.367 16.267 C 193.316 16.267 225.239 38.115 239.9 69.577 C 245.397 81.371 248.467 94.516 248.467 108.367 L 64.267 108.367 L 64.267 108.367 Z " fill-rule="evenodd" fill="rgb(255,255,255)"/></clipPath><g clip-path="url(#_clipPath_NgwSh1vkDICbOX5vvdW1ufUUSm3okrQE)"><g><path d=" M 64.267 108.367 C 64.267 57.567 105.567 16.267 156.367 16.267 C 193.316 16.267 225.239 38.115 239.9 69.577 C 245.397 81.371 248.467 94.516 248.467 108.367" fill="none"/><clipPath id="_clipPath_k5CKyOclyWBgqPVMbp5vSJbUTxw2Q3Zb"><path d=" M -625.468 -341.532 L 625.468 -341.532 L 625.468 341.532 L -625.468 341.532 L -625.468 -341.532 Z  M 64.267 108.367 C 64.267 57.567 105.567 16.267 156.367 16.267 C 193.316 16.267 225.239 38.115 239.9 69.577 C 245.397 81.371 248.467 94.516 248.467 108.367 L 64.267 108.367 Z " fill-rule="evenodd" fill="rgb(255,255,255)"/></clipPath><g clip-path="url(#_clipPath_k5CKyOclyWBgqPVMbp5vSJbUTxw2Q3Zb)"><mask id="_mask_iDN5IGHAEDNxoPAgletbcUgDrlVRPAsS" x="-200%" y="-200%" width="400%" height="400%"><rect x="-200%" y="-200%" width="400%" height="400%" style="fill:white;"/><path d=" M 64.267 108.367 C 64.267 57.567 105.567 16.267 156.367 16.267 C 193.316 16.267 225.239 38.115 239.9 69.577 C 245.397 81.371 248.467 94.516 248.467 108.367" fill="black" stroke="none"/></mask><path d=" M 64.267 108.367 C 64.267 57.567 105.567 16.267 156.367 16.267 C 193.316 16.267 225.239 38.115 239.9 69.577 C 245.397 81.371 248.467 94.516 248.467 108.367" fill="none"/><path d=" M 64.267 108.367 C 64.267 57.567 105.567 16.267 156.367 16.267 C 193.316 16.267 225.239 38.115 239.9 69.577 C 245.397 81.371 248.467 94.516 248.467 108.367" fill="none" mask="url(#_mask_iDN5IGHAEDNxoPAgletbcUgDrlVRPAsS)" vector-effect="non-scaling-stroke" stroke-width="14" stroke="rgb(242,187,3)" stroke-opacity="1000000" stroke-linejoin="miter" stroke-linecap="butt" stroke-miterlimit="10"/></g></g></g></g></g></g><path d=" M 72.167 108.367 C 72.167 61.967 109.967 24.167 156.367 24.167 C 202.767 24.167 240.567 61.967 240.567 108.367" fill="none"/><clipPath id="_clipPath_bbxu1vShlNIoEzJzF4oLARzFjtkfeHKV"><path d=" M -625.468 -473.468 L 625.468 -473.468 L 625.468 377.468 L -625.468 377.468 L -625.468 -473.468 L -625.468 -473.468 Z  M 72.167 108.367 C 72.167 61.967 109.967 24.167 156.367 24.167 C 202.767 24.167 240.567 61.967 240.567 108.367 L 72.167 108.367 L 72.167 108.367 Z " fill-rule="evenodd" fill="rgb(255,255,255)"/></clipPath><g clip-path="url(#_clipPath_bbxu1vShlNIoEzJzF4oLARzFjtkfeHKV)"><g><g><path d=" M 72.167 108.367 C 72.167 61.967 109.967 24.167 156.367 24.167 C 202.767 24.167 240.567 61.967 240.567 108.367" fill="none"/><clipPath id="_clipPath_QDHfjuFot21EPDU0MbebgWEkrZogi2sX"><path d=" M -625.468 -473.468 L 625.468 -473.468 L 625.468 377.468 L -625.468 377.468 L -625.468 -473.468 L -625.468 -473.468 Z  M 72.167 108.367 C 72.167 61.967 109.967 24.167 156.367 24.167 C 202.767 24.167 240.567 61.967 240.567 108.367 L 72.167 108.367 L 72.167 108.367 Z " fill-rule="evenodd" fill="rgb(255,255,255)"/></clipPath><g clip-path="url(#_clipPath_QDHfjuFot21EPDU0MbebgWEkrZogi2sX)"><g><path d=" M 72.167 108.367 C 72.167 61.967 109.967 24.167 156.367 24.167 C 202.767 24.167 240.567 61.967 240.567 108.367" fill="none"/><clipPath id="_clipPath_gWxqoOhPWpqQ0YPLtmbVkmkQq7OGpgKF"><path d=" M -625.468 -341.532 L 625.468 -341.532 L 625.468 341.532 L -625.468 341.532 L -625.468 -341.532 Z  M 72.167 108.367 C 72.167 61.967 109.967 24.167 156.367 24.167 C 202.767 24.167 240.567 61.967 240.567 108.367 L 72.167 108.367 Z " fill-rule="evenodd" fill="rgb(255,255,255)"/></clipPath><g clip-path="url(#_clipPath_gWxqoOhPWpqQ0YPLtmbVkmkQq7OGpgKF)"><mask id="_mask_8NaeVvpksYEVrYLksyx4a4miEaiqdd9G" x="-200%" y="-200%" width="400%" height="400%"><rect x="-200%" y="-200%" width="400%" height="400%" style="fill:white;"/><path d=" M 72.167 108.367 C 72.167 61.967 109.967 24.167 156.367 24.167 C 202.767 24.167 240.567 61.967 240.567 108.367" fill="black" stroke="none"/></mask><path d=" M 72.167 108.367 C 72.167 61.967 109.967 24.167 156.367 24.167 C 202.767 24.167 240.567 61.967 240.567 108.367" fill="none"/><path d=" M 72.167 108.367 C 72.167 61.967 109.967 24.167 156.367 24.167 C 202.767 24.167 240.567 61.967 240.567 108.367" fill="none" mask="url(#_mask_8NaeVvpksYEVrYLksyx4a4miEaiqdd9G)" vector-effect="non-scaling-stroke" stroke-width="14" stroke="rgb(218,185,91)" stroke-opacity="1000000" stroke-linejoin="miter" stroke-linecap="butt" stroke-miterlimit="10"/></g></g></g></g></g></g><path d=" M 80.067 108.367 C 80.067 66.267 114.267 32.067 156.367 32.067 C 198.467 32.067 232.667 66.267 232.667 108.367" fill="none"/><clipPath id="_clipPath_FU3cvuQEGzIVROvV0WS3Q44gwkbqLj1j"><path d=" M -625.468 -473.468 L 625.468 -473.468 L 625.468 377.468 L -625.468 377.468 L -625.468 -473.468 L -625.468 -473.468 Z  M 80.067 108.367 C 80.067 66.267 114.267 32.067 156.367 32.067 C 198.467 32.067 232.667 66.267 232.667 108.367 L 80.067 108.367 L 80.067 108.367 Z " fill-rule="evenodd" fill="rgb(255,255,255)"/></clipPath><g clip-path="url(#_clipPath_FU3cvuQEGzIVROvV0WS3Q44gwkbqLj1j)"><g><g><path d=" M 80.067 108.367 C 80.067 66.267 114.267 32.067 156.367 32.067 C 198.467 32.067 232.667 66.267 232.667 108.367" fill="none"/><clipPath id="_clipPath_PB69d4hCXV2Xm45zzu8YKpitBS7OsZDi"><path d=" M -625.468 -473.468 L 625.468 -473.468 L 625.468 377.468 L -625.468 377.468 L -625.468 -473.468 L -625.468 -473.468 Z  M 80.067 108.367 C 80.067 66.267 114.267 32.067 156.367 32.067 C 198.467 32.067 232.667 66.267 232.667 108.367 L 80.067 108.367 L 80.067 108.367 Z " fill-rule="evenodd" fill="rgb(255,255,255)"/></clipPath><g clip-path="url(#_clipPath_PB69d4hCXV2Xm45zzu8YKpitBS7OsZDi)"><g><path d=" M 80.067 108.367 C 80.067 66.267 114.267 32.067 156.367 32.067 C 198.467 32.067 232.667 66.267 232.667 108.367" fill="none"/><clipPath id="_clipPath_3pDEH6uIrc8s7lihUMZX3cQfTq8sIGOU"><path d=" M -625.468 -341.532 L 625.468 -341.532 L 625.468 341.532 L -625.468 341.532 L -625.468 -341.532 Z  M 80.067 108.367 C 80.067 66.267 114.267 32.067 156.367 32.067 C 198.467 32.067 232.667 66.267 232.667 108.367 L 80.067 108.367 Z " fill-rule="evenodd" fill="rgb(255,255,255)"/></clipPath><g clip-path="url(#_clipPath_3pDEH6uIrc8s7lihUMZX3cQfTq8sIGOU)"><mask id="_mask_wRbOP7Z2M2X4xB8nz1qQYzagxuwCpRRd" x="-200%" y="-200%" width="400%" height="400%"><rect x="-200%" y="-200%" width="400%" height="400%" style="fill:white;"/><path d=" M 80.067 108.367 C 80.067 66.267 114.267 32.067 156.367 32.067 C 198.467 32.067 232.667 66.267 232.667 108.367" fill="black" stroke="none"/></mask><path d=" M 80.067 108.367 C 80.067 66.267 114.267 32.067 156.367 32.067 C 198.467 32.067 232.667 66.267 232.667 108.367" fill="none"/><path d=" M 80.067 108.367 C 80.067 66.267 114.267 32.067 156.367 32.067 C 198.467 32.067 232.667 66.267 232.667 108.367" fill="none" mask="url(#_mask_wRbOP7Z2M2X4xB8nz1qQYzagxuwCpRRd)" vector-effect="non-scaling-stroke" stroke-width="14" stroke="rgb(120,193,94)" stroke-opacity="1000000" stroke-linejoin="miter" stroke-linecap="butt" stroke-miterlimit="10"/></g></g></g></g></g></g><path d=" M 87.967 108.367 C 87.967 70.667 118.667 39.967 156.367 39.967 C 194.067 39.967 224.767 70.667 224.767 108.367" fill="none"/><clipPath id="_clipPath_Q8FovIq1NvkpAzJuNnT4aFkMC7IuwoBD"><path d=" M -625.468 -473.468 L 625.468 -473.468 L 625.468 377.468 L -625.468 377.468 L -625.468 -473.468 L -625.468 -473.468 Z  M 87.967 108.367 C 87.967 70.667 118.667 39.967 156.367 39.967 C 194.067 39.967 224.767 70.667 224.767 108.367 L 87.967 108.367 L 87.967 108.367 Z " fill-rule="evenodd" fill="rgb(255,255,255)"/></clipPath><g clip-path="url(#_clipPath_Q8FovIq1NvkpAzJuNnT4aFkMC7IuwoBD)"><g><g><path d=" M 87.967 108.367 C 87.967 70.667 118.667 39.967 156.367 39.967 C 194.067 39.967 224.767 70.667 224.767 108.367" fill="none"/><clipPath id="_clipPath_D1VP9dxwtVX2j53CTnwVjNspUBetmIw8"><path d=" M -625.468 -473.468 L 625.468 -473.468 L 625.468 377.468 L -625.468 377.468 L -625.468 -473.468 L -625.468 -473.468 Z  M 87.967 108.367 C 87.967 70.667 118.667 39.967 156.367 39.967 C 194.067 39.967 224.767 70.667 224.767 108.367 L 87.967 108.367 L 87.967 108.367 Z " fill-rule="evenodd" fill="rgb(255,255,255)"/></clipPath><g clip-path="url(#_clipPath_D1VP9dxwtVX2j53CTnwVjNspUBetmIw8)"><g><path d=" M 87.967 108.367 C 87.967 70.667 118.667 39.967 156.367 39.967 C 194.067 39.967 224.767 70.667 224.767 108.367" fill="none"/><clipPath id="_clipPath_UL70xsgTsmY2nc8daNE4VVwIYIZum4o2"><path d=" M -625.468 -341.532 L 625.468 -341.532 L 625.468 341.532 L -625.468 341.532 L -625.468 -341.532 Z  M 87.967 108.367 C 87.967 70.667 118.667 39.967 156.367 39.967 C 194.067 39.967 224.767 70.667 224.767 108.367 L 87.967 108.367 Z " fill-rule="evenodd" fill="rgb(255,255,255)"/></clipPath><g clip-path="url(#_clipPath_UL70xsgTsmY2nc8daNE4VVwIYIZum4o2)"><mask id="_mask_HiaTlUbCQGlq4jFYHhyfObXrdd9UO8wR" x="-200%" y="-200%" width="400%" height="400%"><rect x="-200%" y="-200%" width="400%" height="400%" style="fill:white;"/><path d=" M 87.967 108.367 C 87.967 70.667 118.667 39.967 156.367 39.967 C 194.067 39.967 224.767 70.667 224.767 108.367" fill="black" stroke="none"/></mask><path d=" M 87.967 108.367 C 87.967 70.667 118.667 39.967 156.367 39.967 C 194.067 39.967 224.767 70.667 224.767 108.367" fill="none"/><path d=" M 87.967 108.367 C 87.967 70.667 118.667 39.967 156.367 39.967 C 194.067 39.967 224.767 70.667 224.767 108.367" fill="none" mask="url(#_mask_HiaTlUbCQGlq4jFYHhyfObXrdd9UO8wR)" vector-effect="non-scaling-stroke" stroke-width="14" stroke="rgb(66,191,176)" stroke-opacity="1000000" stroke-linejoin="miter" stroke-linecap="butt" stroke-miterlimit="10"/></g></g></g></g></g></g><path d=" M 95.867 108.367 C 95.867 74.967 123.067 47.867 156.367 47.867 C 189.767 47.867 216.867 75.067 216.867 108.367" fill="none"/><clipPath id="_clipPath_RpkzCQSk2N60KkFJDft7NsQuadcqDOcY"><path d=" M -625.468 -473.468 L 625.468 -473.468 L 625.468 377.468 L -625.468 377.468 L -625.468 -473.468 L -625.468 -473.468 Z  M 95.867 108.367 C 95.867 74.967 123.067 47.867 156.367 47.867 C 189.767 47.867 216.867 75.067 216.867 108.367 L 95.867 108.367 L 95.867 108.367 Z " fill-rule="evenodd" fill="rgb(255,255,255)"/></clipPath><g clip-path="url(#_clipPath_RpkzCQSk2N60KkFJDft7NsQuadcqDOcY)"><g><g><path d=" M 95.867 108.367 C 95.867 74.967 123.067 47.867 156.367 47.867 C 189.767 47.867 216.867 75.067 216.867 108.367" fill="none"/><clipPath id="_clipPath_aBKRzzKR3wfKQu3Q4RpcBQsuYRdP8T8I"><path d=" M -625.468 -473.468 L 625.468 -473.468 L 625.468 377.468 L -625.468 377.468 L -625.468 -473.468 L -625.468 -473.468 Z  M 95.867 108.367 C 95.867 74.967 123.067 47.867 156.367 47.867 C 189.767 47.867 216.867 75.067 216.867 108.367 L 95.867 108.367 L 95.867 108.367 Z " fill-rule="evenodd" fill="rgb(255,255,255)"/></clipPath><g clip-path="url(#_clipPath_aBKRzzKR3wfKQu3Q4RpcBQsuYRdP8T8I)"><g><path d=" M 95.867 108.367 C 95.867 74.967 123.067 47.867 156.367 47.867 C 189.767 47.867 216.867 75.067 216.867 108.367" fill="none"/><clipPath id="_clipPath_YYs61QDzo90wRK9Tk471y23eB2piHYeb"><path d=" M -625.468 -341.532 L 625.468 -341.532 L 625.468 341.532 L -625.468 341.532 L -625.468 -341.532 Z  M 95.867 108.367 C 95.867 74.967 123.067 47.867 156.367 47.867 C 189.767 47.867 216.867 75.067 216.867 108.367 L 95.867 108.367 Z " fill-rule="evenodd" fill="rgb(255,255,255)"/></clipPath><g clip-path="url(#_clipPath_YYs61QDzo90wRK9Tk471y23eB2piHYeb)"><mask id="_mask_K6SVoghmRdD9sE7mEvCJLNhgdmTEipTq" x="-200%" y="-200%" width="400%" height="400%"><rect x="-200%" y="-200%" width="400%" height="400%" style="fill:white;"/><path d=" M 95.867 108.367 C 95.867 74.967 123.067 47.867 156.367 47.867 C 189.767 47.867 216.867 75.067 216.867 108.367" fill="black" stroke="none"/></mask><path d=" M 95.867 108.367 C 95.867 74.967 123.067 47.867 156.367 47.867 C 189.767 47.867 216.867 75.067 216.867 108.367" fill="none"/><path d=" M 95.867 108.367 C 95.867 74.967 123.067 47.867 156.367 47.867 C 189.767 47.867 216.867 75.067 216.867 108.367" fill="none" mask="url(#_mask_K6SVoghmRdD9sE7mEvCJLNhgdmTEipTq)" vector-effect="non-scaling-stroke" stroke-width="14" stroke="rgb(89,174,203)" stroke-opacity="1000000" stroke-linejoin="miter" stroke-linecap="butt" stroke-miterlimit="10"/></g></g></g></g></g></g><path d=" M 103.767 108.367 C 103.767 79.267 127.367 55.767 156.367 55.767 C 169.181 55.767 180.909 60.343 190.023 67.941 C 201.606 77.598 208.967 92.137 208.967 108.367" fill="none"/><clipPath id="_clipPath_vL55bqxub8VJAMXonucMXwNRVpNAn66Y"><path d=" M -625.468 -473.468 L 625.468 -473.468 L 625.468 377.468 L -625.468 377.468 L -625.468 -473.468 L -625.468 -473.468 Z  M 103.767 108.367 C 103.767 79.267 127.367 55.767 156.367 55.767 C 169.181 55.767 180.909 60.343 190.023 67.941 C 201.606 77.598 208.967 92.137 208.967 108.367 L 103.767 108.367 L 103.767 108.367 Z " fill-rule="evenodd" fill="rgb(255,255,255)"/></clipPath><g clip-path="url(#_clipPath_vL55bqxub8VJAMXonucMXwNRVpNAn66Y)"><g><g><path d=" M 103.767 108.367 C 103.767 79.267 127.367 55.767 156.367 55.767 C 169.181 55.767 180.909 60.343 190.023 67.941 C 201.606 77.598 208.967 92.137 208.967 108.367" fill="none"/><clipPath id="_clipPath_8xd5WWsJxyuzsl3pUDSiewBDnqLspVhS"><path d=" M -625.468 -473.468 L 625.468 -473.468 L 625.468 377.468 L -625.468 377.468 L -625.468 -473.468 L -625.468 -473.468 Z  M 103.767 108.367 C 103.767 79.267 127.367 55.767 156.367 55.767 C 169.181 55.767 180.909 60.343 190.023 67.941 C 201.606 77.598 208.967 92.137 208.967 108.367 L 103.767 108.367 L 103.767 108.367 Z " fill-rule="evenodd" fill="rgb(255,255,255)"/></clipPath><g clip-path="url(#_clipPath_8xd5WWsJxyuzsl3pUDSiewBDnqLspVhS)"><g><path d=" M 103.767 108.367 C 103.767 79.267 127.367 55.767 156.367 55.767 C 169.181 55.767 180.909 60.343 190.023 67.941 C 201.606 77.598 208.967 92.137 208.967 108.367" fill="none"/><clipPath id="_clipPath_R1RtXsTGtLwDEgZl6c8Mn8470aHc2vNy"><path d=" M -625.468 -341.532 L 625.468 -341.532 L 625.468 341.532 L -625.468 341.532 L -625.468 -341.532 Z  M 103.767 108.367 C 103.767 79.267 127.367 55.767 156.367 55.767 C 169.181 55.767 180.909 60.343 190.023 67.941 C 201.606 77.598 208.967 92.137 208.967 108.367 L 103.767 108.367 Z " fill-rule="evenodd" fill="rgb(255,255,255)"/></clipPath><g clip-path="url(#_clipPath_R1RtXsTGtLwDEgZl6c8Mn8470aHc2vNy)"><mask id="_mask_1jyvxHxS4gXDaHzGOEGsj1dfQPFyz3kI" x="-200%" y="-200%" width="400%" height="400%"><rect x="-200%" y="-200%" width="400%" height="400%" style="fill:white;"/><path d=" M 103.767 108.367 C 103.767 79.267 127.367 55.767 156.367 55.767 C 169.181 55.767 180.909 60.343 190.023 67.941 C 201.606 77.598 208.967 92.137 208.967 108.367" fill="black" stroke="none"/></mask><path d=" M 103.767 108.367 C 103.767 79.267 127.367 55.767 156.367 55.767 C 169.181 55.767 180.909 60.343 190.023 67.941 C 201.606 77.598 208.967 92.137 208.967 108.367" fill="none"/><path d=" M 103.767 108.367 C 103.767 79.267 127.367 55.767 156.367 55.767 C 169.181 55.767 180.909 60.343 190.023 67.941 C 201.606 77.598 208.967 92.137 208.967 108.367" fill="none" mask="url(#_mask_1jyvxHxS4gXDaHzGOEGsj1dfQPFyz3kI)" vector-effect="non-scaling-stroke" stroke-width="14" stroke="rgb(158,115,187)" stroke-opacity="1000000" stroke-linejoin="miter" stroke-linecap="butt" stroke-miterlimit="10"/></g></g></g></g></g></g></g><g><g><g><g><clipPath id="_clipPath_KdcKJevYHHGxVXwOYvjoveYJUi1Pg0sy"><rect x="13.515" y="36.671" width="209.194" height="73.696" transform="matrix(1,0,0,1,0,0)" fill="rgb(255,255,255)"/></clipPath><g clip-path="url(#_clipPath_KdcKJevYHHGxVXwOYvjoveYJUi1Pg0sy)"><g><g><g><g><ellipse vector-effect="non-scaling-stroke" cx="118.65307127395197" cy="111.92004548858927" rx="36.78065098148603" ry="23.981268011831702" fill="rgb(210,225,239)" fill-opacity="0.3"/><ellipse vector-effect="non-scaling-stroke" cx="187.73299999999946" cy="111.01157142857136" rx="34.976999999999975" ry="25.46057142857137" fill="rgb(210,225,239)" fill-opacity="0.3"/></g></g></g></g></g></g><g><clipPath id="_clipPath_rrdbKuBuyVuFSnkIluo52BsHzRbHXuVw"><rect x="0" y="16.367" width="267" height="94" transform="matrix(1,0,0,1,0,0)" fill="rgb(255,255,255)"/></clipPath><g clip-path="url(#_clipPath_rrdbKuBuyVuFSnkIluo52BsHzRbHXuVw)"><g><g><g><g><g><ellipse vector-effect="non-scaling-stroke" cx="231.6225" cy="110.15214285714279" rx="35.3775" ry="25.782857142857097" fill="rgb(255,255,255)" fill-opacity="0.7"/><ellipse vector-effect="non-scaling-stroke" cx="173.41650000000007" cy="118.42414285714284" rx="40.71750000000003" ry="25.782857142857097" fill="rgb(255,255,255)" fill-opacity="0.7"/></g></g></g></g></g></g></g></g><g><g><rect x="13.515" y="36.671" width="209.194" height="73.696" transform="matrix(1,0,0,1,0,0)" fill="none"/></g><g><clipPath id="_clipPath_RNGiBrVWVpPMgwj2XIBKV0MsQcecqWrh"><rect x="0" y="16.367" width="267" height="94" transform="matrix(1,0,0,1,0,0)" fill="rgb(255,255,255)"/></clipPath><g clip-path="url(#_clipPath_RNGiBrVWVpPMgwj2XIBKV0MsQcecqWrh)"><g><g><g><g><g><ellipse vector-effect="non-scaling-stroke" cx="231.6225" cy="110.15214285714279" rx="35.3775" ry="25.782857142857097" fill="rgb(255,255,255)" fill-opacity="0.7"/><ellipse vector-effect="non-scaling-stroke" cx="213.1836228808286" cy="138.30880656614772" rx="35.3775" ry="25.782857142857097" fill="rgb(255,255,255)" fill-opacity="0.7"/><ellipse vector-effect="non-scaling-stroke" cx="173.41650000000007" cy="118.42414285714284" rx="40.71750000000003" ry="25.782857142857097" fill="rgb(255,255,255)" fill-opacity="0.4"/></g></g></g></g></g></g></g></g></g><g><g><g><rect x="13.515" y="36.671" width="209.194" height="73.696" transform="matrix(1,0,0,1,0,0)" fill="none"/></g></g><g><g><rect x="13.515" y="36.671" width="209.194" height="73.696" transform="matrix(1,0,0,1,0,0)" fill="none"/></g><g><g><g><g><ellipse vector-effect="non-scaling-stroke" cx="218.86627922597935" cy="112.52986733987487" rx="29.3580497291982" ry="21.395926850704882" fill="rgb(255,255,255)"/><ellipse vector-effect="non-scaling-stroke" cx="251.03061813730906" cy="115.01941999870017" rx="29.3580497291982" ry="21.395926850704868" fill="rgb(255,255,255)"/><ellipse vector-effect="non-scaling-stroke" cx="170.56397853944952" cy="119.39439387114271" rx="33.789453461907385" ry="21.395926850704882" fill="rgb(255,255,255)"/><ellipse vector-effect="non-scaling-stroke" cx="116.68300526993497" cy="121.71228594663569" rx="39.73243058396676" ry="30.5783454574657" fill="rgb(255,255,255)"/></g></g></g></g></g></g></g></g></g></g></g></g></g></g></g></g></g><ellipse vector-effect="non-scaling-stroke" cx="56.79033176934051" cy="114.06851408849298" rx="30.53050422668194" ry="26.923207953803626" fill="rgb(255,255,255)"/><ellipse vector-effect="non-scaling-stroke" cx="66.7903317693405" cy="113.06851408849298" rx="30.53050422668194" ry="26.923207953803626" fill="rgb(255,255,255)" fill-opacity="0.5"/><ellipse vector-effect="non-scaling-stroke" cx="57.5590146082306" cy="130.61436915131003" rx="37.11300626143924" ry="26.923207953803626" fill="rgb(255,255,255)"/><ellipse vector-effect="non-scaling-stroke" cx="86.44099869258201" cy="130.61436915131003" rx="28.835022697281513" ry="26.923207953803626" fill="rgb(255,255,255)"/><ellipse vector-effect="non-scaling-stroke" cx="115.73565576516283" cy="134.23978433326434" rx="34.406040355274214" ry="24.95947034919839" fill="rgb(255,255,255)"/><ellipse vector-effect="non-scaling-stroke" cx="161.44088684695788" cy="134.23978433326437" rx="34.4060403552742" ry="28.584885531152764" fill="rgb(255,255,255)"/><ellipse vector-effect="non-scaling-stroke" cx="204.19751148032194" cy="133.3107689819518" rx="29.97223851549117" ry="24.901238219538044" fill="rgb(255,255,255)"/><ellipse vector-effect="non-scaling-stroke" cx="250.74431958154423" cy="130.61436915131003" rx="37.11300626143924" ry="26.923207953803626" fill="rgb(255,255,255)"/></g></g></g></svg>