<?xml version="1.0" encoding="UTF-8" standalone="no"?><!-- Generator: Gravit.io --><svg xmlns="http://www.w3.org/2000/svg" xmlns:xlink="http://www.w3.org/1999/xlink" style="isolation:isolate" viewBox="0 0 608.9 405.4" width="608.9pt" height="405.4pt"><defs><clipPath id="_clipPath_VWXsKnYdPqMyQa785UfMTSHEUlBWpCUQ"><rect width="608.9" height="405.4"/></clipPath></defs><g clip-path="url(#_clipPath_VWXsKnYdPqMyQa785UfMTSHEUlBWpCUQ)"><g style="opacity:0.2;"><g opacity="0.7"><path d=" M 225.9 200.8 C 229.5 223.4 214.1 244.7 191.5 248.3 C 168.9 251.9 147.6 236.5 144 213.9 C 140.4 191.3 155.8 170 178.4 166.4 C 201 162.8 222.3 178.2 225.9 200.8 Z " fill="rgb(255,255,255)"/></g><g opacity="0.7"><path d=" M 247.6 198.7 C 249.9 213.3 240 227.1 225.3 229.5 C 210.7 231.8 196.9 221.9 194.5 207.2 C 192.1 192.6 202.1 178.8 216.8 176.4 C 231.5 174.1 245.3 184.1 247.6 198.7 Z " fill="rgb(255,255,255)"/></g><g opacity="0.7"><path d=" M 240.7 198.3 C 242.6 209.8 232.5 221.1 218.3 223.3 C 204.1 225.6 191.1 218.1 189.2 206.5 C 187.4 194.9 197.4 183.7 211.6 181.5 C 225.8 179.3 238.9 186.8 240.7 198.3 Z " fill="rgb(255,255,255)"/></g><g opacity="0.7"><path d=" M 178.9 181.7 C 181 194.9 172 207.3 158.8 209.4 C 145.6 211.5 133.2 202.5 131.1 189.3 C 129 176.1 138 163.7 151.2 161.6 C 164.4 159.5 176.8 168.5 178.9 181.7 Z " fill="rgb(248,248,248)"/></g><g opacity="0.7"><path d=" M 165.3 191.6 C 167.8 207.2 154.8 222.3 136.2 225.2 C 117.6 228.1 100.6 217.9 98.1 202.3 C 95.6 186.7 108.6 171.6 127.2 168.7 C 145.7 165.8 162.8 176 165.3 191.6 Z " fill="rgb(255,255,255)"/></g><g opacity="0.7"><path d=" M 218.2 196.5 C 221.3 216.1 208 234.5 188.4 237.6 C 168.8 240.7 150.4 227.4 147.3 207.8 C 144.2 188.2 157.5 169.8 177.1 166.7 C 196.6 163.6 215 177 218.2 196.5 Z " fill="rgb(248,248,248)"/></g><g opacity="0.7"><path d=" M 214.8 196.1 C 217.6 213.8 202.1 231.1 180.1 234.6 C 158.1 238.1 138 226.6 135.1 208.9 C 132.3 191.2 147.8 173.9 169.8 170.4 C 191.8 166.8 212 178.3 214.8 196.1 Z " fill="rgb(255,255,255)"/></g></g><g style="opacity:0.3;"><g opacity="0.7"><path d=" M 435.3 280.6 C 438.2 298.6 426 315.5 408 318.3 C 390 321.2 373.1 309 370.3 291 C 367.4 273 379.6 256.1 397.6 253.3 C 415.5 250.5 432.4 262.7 435.3 280.6 Z " fill="rgb(248,248,248)"/></g><g opacity="0.7"><path d=" M 467.1 289.3 C 470.6 311.2 455.7 331.8 433.8 335.3 C 411.9 338.8 391.4 323.9 387.8 302 C 384.3 280.1 399.2 259.6 421.1 256 C 443.1 252.5 463.6 267.4 467.1 289.3 Z " fill="rgb(248,248,248)"/></g><g opacity="0.7"><path d=" M 466.6 286.1 C 469.7 305.3 453.9 323.7 431.4 327.3 C 408.9 330.9 388.1 318.3 385.1 299.2 C 382 280 397.8 261.6 420.3 258 C 442.8 254.3 463.6 266.9 466.6 286.1 Z " fill="rgb(255,255,255)"/></g><g opacity="0.7"><path d=" M 602.7 254.7 C 602.4 275.4 584.1 291.9 561.8 291.6 C 539.5 291.3 521.7 274.2 522 253.5 C 522.3 232.8 540.6 216.3 562.9 216.6 C 585.2 216.9 603 234 602.7 254.7 Z " fill="rgb(248,248,248)"/></g><g opacity="0.7"><path d=" M 592.3 248.9 C 595.1 266.3 580 283.1 558.7 286.5 C 537.3 289.9 517.8 278.6 515 261.3 C 512.2 243.9 527.3 227.1 548.6 223.7 C 569.9 220.3 589.5 231.5 592.3 248.9 Z " fill="rgb(255,255,255)"/></g><g opacity="0.7"><path d=" M 514.6 228.8 C 518.3 252.1 502.4 274.1 479.1 277.9 C 455.8 281.6 433.8 265.8 430.1 242.4 C 426.4 219.1 442.2 197.1 465.6 193.3 C 488.9 189.5 510.9 205.4 514.6 228.8 Z " fill="rgb(248,248,248)"/></g><g opacity="0.7"><path d=" M 461.2 254.1 C 465 277.5 445.4 300.2 417.5 304.6 C 389.6 309.1 364 293.7 360.2 270.2 C 356.4 246.8 376 224.1 403.9 219.6 C 431.8 215.3 457.4 230.7 461.2 254.1 Z " fill="rgb(255,255,255)"/></g><g opacity="0.7"><path d=" M 545.4 246.2 C 550.1 275.6 530.1 303.3 500.7 308 C 471.3 312.7 443.6 292.7 438.9 263.3 C 434.2 233.9 454.2 206.2 483.6 201.5 C 513 196.8 540.7 216.8 545.4 246.2 Z " fill="rgb(248,248,248)"/></g><g opacity="0.7"><path d=" M 548.4 245.9 C 552.7 272.5 529.3 298.4 496.3 303.7 C 463.3 309 433 291.7 428.7 265.1 C 424.4 238.5 447.8 212.6 480.8 207.3 C 513.9 201.9 544.2 219.2 548.4 245.9 Z " fill="rgb(255,255,255)"/></g></g><g style="opacity:0.2;"><g opacity="0.7"><path d=" M 110.7 314.6 C 113.8 333.8 98 352.2 75.5 355.8 C 53 359.4 32.2 346.8 29.2 327.7 C 26.1 308.5 41.9 290.1 64.4 286.5 C 86.9 282.9 107.6 295.5 110.7 314.6 Z " fill="rgb(248,248,248)"/></g><g opacity="0.7"><path d=" M 67.1 312 C 69.4 326.6 57.3 340.7 40.1 343.5 C 22.8 346.3 6.9 336.7 4.6 322.1 C 2.3 307.5 14.4 293.4 31.6 290.6 C 48.8 287.8 64.7 297.4 67.1 312 Z " fill="rgb(248,248,248)"/></g><g opacity="0.7"><path d=" M 217.9 242.6 C 220.7 260 205.6 276.8 184.3 280.2 C 162.9 283.6 143.4 272.3 140.6 255 C 137.8 237.6 152.9 220.8 174.2 217.4 C 195.5 214 215.1 225.3 217.9 242.6 Z " fill="rgb(255,255,255)"/></g><g opacity="0.7"><path d=" M 174.6 263.4 C 178.3 286.7 162.4 308.7 139.1 312.5 C 115.8 316.2 93.8 300.4 90.1 277 C 86.4 253.7 102.2 231.7 125.6 227.9 C 148.9 224.2 170.9 240.1 174.6 263.4 Z " fill="rgb(248,248,248)"/></g><g opacity="0.7"><path d=" M 166.5 266.5 C 169.7 286.3 152.6 305.5 128.4 309.4 C 104.2 313.3 82 300.4 78.8 280.6 C 75.6 260.8 92.7 241.6 116.9 237.7 C 141.1 233.8 163.3 246.7 166.5 266.5 Z " fill="rgb(255,255,255)"/></g><g opacity="0.7"><path d=" M 123.2 294.2 C 127 317.6 107.4 340.3 79.5 344.7 C 51.6 349.1 26 333.8 22.2 310.3 C 18.4 287 38 264.3 65.9 259.9 C 93.7 255.4 119.4 270.8 123.2 294.2 Z " fill="rgb(255,255,255)"/></g></g><g><g><path d=" M 317.452 318.801 C 317.452 318.801 349.454 342.309 353.625 345.418 C 357.795 348.527 356.279 356.414 356.279 356.414 L 304.636 342.916 C 313.964 336.167 317.452 318.801 317.452 318.801 Z " fill="rgb(243,243,243)"/><path d=" M 321.471 87.585 C 321.471 94.107 321.471 250.93 321.471 270.04 C 321.471 282.856 317.452 318.725 317.452 318.725 C 317.452 318.725 313.964 336.091 304.712 342.84 L 304.712 48.986 C 315.025 48.986 321.471 81.063 321.471 87.585 Z " fill="rgb(255,255,255)"/><path d=" M 785.533 147.19 C 785.533 147.19 786.297 147.19 787.239 147.19 C 788.181 147.19 788.945 147.19 788.945 147.19 C 788.945 147.19 788.181 147.19 787.239 147.19 C 786.297 147.19 785.533 147.19 785.533 147.19 Z " fill="rgb(255,255,255)"/><path d=" M 450.994 226.967 C 446.217 224.616 391.238 197.392 354.459 179.192 C 355.596 176.158 357.947 169.258 357.947 161.295 C 357.947 150.603 357.113 145.598 355.9 145.598 L 347.103 145.598 L 338.306 145.598 C 337.093 145.598 336.259 150.603 336.259 161.295 C 336.259 164.708 336.638 167.893 337.245 170.623 C 327.614 165.845 321.471 162.812 321.471 162.812 L 321.471 211.876 C 325.566 212.862 329.51 213.847 333.377 214.833 C 333.984 218.625 334.818 221.431 335.652 221.431 C 336.41 221.431 337.169 219.156 337.7 215.895 C 345.131 217.715 352.108 219.535 358.63 221.127 C 359.236 224.995 360.07 227.952 360.905 227.952 C 361.663 227.952 362.421 225.602 363.028 222.265 C 375.389 225.45 386.157 228.256 395.56 230.758 C 396.167 234.55 397.001 237.507 397.835 237.507 C 398.594 237.507 399.352 235.157 399.959 231.972 C 436.738 241.906 450.312 246.683 455.317 248.882 C 456.682 249.489 458.199 248.427 458.123 246.987 C 457.668 241.072 456.303 229.545 450.994 226.967 Z " fill="rgb(243,243,243)"/><mask id="_mask_EcVESTsLZdEOlc3yolARFmxONYdbGXmD" x="-200%" y="-200%" width="400%" height="400%"><rect x="-200%" y="-200%" width="400%" height="400%" style="fill:white;"/><path d=" M 447.885 245.925 L 447.885 239.327 L 341.643 205.809 L 341.643 216.957" fill="black" stroke="none"/></mask><path d=" M 447.885 245.925 L 447.885 239.327 L 341.643 205.809 L 341.643 216.957" fill="none"/><path d=" M 447.885 245.925 L 447.885 239.327 L 341.643 205.809 L 341.643 216.957" fill="none" mask="url(#_mask_EcVESTsLZdEOlc3yolARFmxONYdbGXmD)" vector-effect="non-scaling-stroke" stroke-width="0.509" stroke="rgb(232,232,232)" stroke-linejoin="miter" stroke-linecap="butt" stroke-miterlimit="10"/><mask id="_mask_rdJ6Nr2oNmO6G0l8teYspS6vT7eKF6LW" x="-200%" y="-200%" width="400%" height="400%"><rect x="-200%" y="-200%" width="400%" height="400%" style="fill:white;"/><path d=" M 308.352 339.427 L 350.136 351.106 L 350.136 354.822" fill="black" stroke="none"/></mask><path d=" M 308.352 339.427 L 350.136 351.106 L 350.136 354.822" fill="none"/><path d=" M 308.352 339.427 L 350.136 351.106 L 350.136 354.822" fill="none" mask="url(#_mask_rdJ6Nr2oNmO6G0l8teYspS6vT7eKF6LW)" vector-effect="non-scaling-stroke" stroke-width="0.509" stroke="rgb(232,232,232)" stroke-linejoin="miter" stroke-linecap="butt" stroke-miterlimit="10"/><mask id="_mask_rh0ojE7AQCNF2JfVWnNgQVbs0um1QVMr" x="-200%" y="-200%" width="400%" height="400%"><rect x="-200%" y="-200%" width="400%" height="400%" style="fill:white;"/><line x1="416.869" y1="229.697" x2="416.869" y2="236.673" fill="black" stroke="none"/></mask><line x1="416.869" y1="229.697" x2="416.869" y2="236.673" mask="url(#_mask_rh0ojE7AQCNF2JfVWnNgQVbs0um1QVMr)" vector-effect="non-scaling-stroke" stroke-width="0.509" stroke="rgb(232,232,232)" stroke-linejoin="miter" stroke-linecap="butt" stroke-miterlimit="10"/><mask id="_mask_Ptp5PTVwn2K3pCQAgd1FlvoYYdM3jn99" x="-200%" y="-200%" width="400%" height="400%"><rect x="-200%" y="-200%" width="400%" height="400%" style="fill:white;"/><line x1="380.242" y1="218.094" x2="380.242" y2="226.815" fill="black" stroke="none"/></mask><line x1="380.242" y1="218.094" x2="380.242" y2="226.815" mask="url(#_mask_Ptp5PTVwn2K3pCQAgd1FlvoYYdM3jn99)" vector-effect="non-scaling-stroke" stroke-width="0.509" stroke="rgb(232,232,232)" stroke-linejoin="miter" stroke-linecap="butt" stroke-miterlimit="10"/><mask id="_mask_mKsCeccf1UnS63RXpyHAiVAa1ce1QyzO" x="-200%" y="-200%" width="400%" height="400%"><rect x="-200%" y="-200%" width="400%" height="400%" style="fill:white;"/><path d=" M 321.471 175.173 C 321.471 175.173 329.737 176.841 329.737 183.363 C 329.737 189.884 329.737 213.923 329.737 213.923" fill="black" stroke="none"/></mask><path d=" M 321.471 175.173 C 321.471 175.173 329.737 176.841 329.737 183.363 C 329.737 189.884 329.737 213.923 329.737 213.923" fill="none"/><path d=" M 321.471 175.173 C 321.471 175.173 329.737 176.841 329.737 183.363 C 329.737 189.884 329.737 213.923 329.737 213.923" fill="none" mask="url(#_mask_mKsCeccf1UnS63RXpyHAiVAa1ce1QyzO)" vector-effect="non-scaling-stroke" stroke-width="0.509" stroke="rgb(232,232,232)" stroke-linejoin="miter" stroke-linecap="butt" stroke-miterlimit="10"/></g><path d=" M 291.896 318.801 C 291.896 318.801 259.895 342.309 255.724 345.418 C 251.553 348.527 253.07 356.414 253.07 356.414 L 304.712 342.916 C 295.385 336.167 291.896 318.801 291.896 318.801 Z " fill="rgb(243,243,243)"/><path d=" M 287.953 87.585 C 287.953 94.107 287.953 250.93 287.953 270.04 C 287.953 282.856 291.972 318.725 291.972 318.725 C 291.972 318.725 295.46 336.091 304.712 342.84 L 304.712 48.986 C 294.323 48.986 287.953 81.063 287.953 87.585 Z " fill="rgb(255,255,255)"/><path d=" M 303.878 69.385 C 309.414 69.385 313.888 73.708 314.57 79.319 C 314.646 78.864 314.646 78.333 314.646 77.878 C 314.646 71.584 309.793 66.503 303.802 66.503 C 297.811 66.503 292.958 71.584 292.958 77.878 C 292.958 78.409 293.034 78.864 293.034 79.319 C 293.792 73.708 298.342 69.385 303.878 69.385 Z " fill="rgb(38,147,220)"/><mask id="_mask_EmwI5dUiP9glYPuiGcjSsup53JVamddg" x="-200%" y="-200%" width="400%" height="400%"><rect x="-200%" y="-200%" width="400%" height="400%" style="fill:white;"/><line x1="303.878" y1="62.333" x2="303.878" y2="79.243" fill="black" stroke="none"/></mask><line x1="303.878" y1="62.333" x2="303.878" y2="79.243" mask="url(#_mask_EmwI5dUiP9glYPuiGcjSsup53JVamddg)" vector-effect="non-scaling-stroke" stroke-width="1.559" stroke="rgb(255,255,255)" stroke-linejoin="miter" stroke-linecap="butt" stroke-miterlimit="10"/><mask id="_mask_Rfczp5tgjJJLBymtRlbgsIyf4ZYJjN0M" x="-200%" y="-200%" width="400%" height="400%"><rect x="-200%" y="-200%" width="400%" height="400%" style="fill:white;"/><line x1="311.689" y1="62.863" x2="305.85" y2="78.788" fill="black" stroke="none"/></mask><line x1="311.689" y1="62.863" x2="305.85" y2="78.788" mask="url(#_mask_Rfczp5tgjJJLBymtRlbgsIyf4ZYJjN0M)" vector-effect="non-scaling-stroke" stroke-width="1.559" stroke="rgb(255,255,255)" stroke-linejoin="miter" stroke-linecap="butt" stroke-miterlimit="10"/><mask id="_mask_NUoAqj2aUQ9kb6RlSAdEU8kUSSytA7f2" x="-200%" y="-200%" width="400%" height="400%"><rect x="-200%" y="-200%" width="400%" height="400%" style="fill:white;"/><line x1="296.067" y1="62.863" x2="301.83" y2="78.788" fill="black" stroke="none"/></mask><line x1="296.067" y1="62.863" x2="301.83" y2="78.788" mask="url(#_mask_NUoAqj2aUQ9kb6RlSAdEU8kUSSytA7f2)" vector-effect="non-scaling-stroke" stroke-width="1.559" stroke="rgb(255,255,255)" stroke-linejoin="miter" stroke-linecap="butt" stroke-miterlimit="10"/><path d=" M 513.481 147.19 C 513.481 147.19 514.246 147.19 515.187 147.19 C 516.129 147.19 516.894 147.19 516.894 147.19 C 516.894 147.19 516.129 147.19 515.187 147.19 C 514.246 147.19 513.481 147.19 513.481 147.19 Z " fill="rgb(255,255,255)"/><path d=" M 287.953 162.812 C 287.953 162.812 281.81 165.845 272.18 170.623 C 272.71 167.817 273.165 164.632 273.165 161.295 C 273.165 150.603 272.331 145.598 271.118 145.598 L 262.321 145.598 L 253.525 145.598 C 252.311 145.598 251.477 150.603 251.477 161.295 C 251.477 169.258 253.752 176.234 254.965 179.192 C 218.186 197.392 163.283 224.54 158.43 226.967 C 153.121 229.621 151.756 241.072 151.377 247.062 C 151.301 248.579 152.818 249.565 154.183 248.958 C 159.188 246.759 172.762 241.982 209.541 232.047 C 210.148 235.308 210.831 237.583 211.665 237.583 C 212.499 237.583 213.333 234.702 213.94 230.834 C 223.267 228.332 234.035 225.526 246.472 222.341 C 247.079 225.602 247.761 228.028 248.595 228.028 C 249.43 228.028 250.264 225.071 250.87 221.203 C 257.392 219.535 264.369 217.791 271.8 215.971 C 272.407 219.232 273.09 221.507 273.848 221.507 C 274.682 221.507 275.516 218.701 276.123 214.909 C 279.99 213.923 283.934 212.937 288.029 211.952 L 288.029 162.812 L 287.953 162.812 Z " fill="rgb(243,243,243)"/><mask id="_mask_YWpCs6nH5jnZY49B3zMiyDvVJ8Jweejj" x="-200%" y="-200%" width="400%" height="400%"><rect x="-200%" y="-200%" width="400%" height="400%" style="fill:white;"/><path d=" M 161.463 245.925 L 161.463 239.327 L 267.705 205.809 L 267.705 216.957" fill="black" stroke="none"/></mask><path d=" M 161.463 245.925 L 161.463 239.327 L 267.705 205.809 L 267.705 216.957" fill="none"/><path d=" M 161.463 245.925 L 161.463 239.327 L 267.705 205.809 L 267.705 216.957" fill="none" mask="url(#_mask_YWpCs6nH5jnZY49B3zMiyDvVJ8Jweejj)" vector-effect="non-scaling-stroke" stroke-width="0.509" stroke="rgb(232,232,232)" stroke-linejoin="miter" stroke-linecap="butt" stroke-miterlimit="10"/><g><line x1="303.575" y1="298.174" x2="303.575" y2="351.257"/><path d=" M 305.409 298.174 C 305.409 298.174 305.712 301.511 305.94 306.516 C 306.015 309.018 306.167 311.9 306.167 315.009 C 306.243 316.602 306.243 318.194 306.243 319.787 C 306.243 321.455 306.243 323.047 306.243 324.716 C 306.243 328.052 306.167 331.389 306.091 334.498 C 306.015 337.607 305.94 340.489 305.788 342.992 C 305.56 347.997 305.333 351.333 305.333 351.333 C 305.333 351.788 304.878 352.092 304.423 352.092 C 304.044 352.092 303.74 351.712 303.665 351.333 C 303.665 351.333 303.361 347.997 303.21 342.992 C 303.134 340.489 302.982 337.607 302.906 334.498 C 302.83 331.389 302.83 328.052 302.755 324.716 C 302.755 323.047 302.755 321.379 302.755 319.787 C 302.755 318.118 302.755 316.526 302.83 315.009 C 302.906 311.9 302.982 309.018 303.058 306.516 C 303.285 301.511 303.589 298.174 303.589 298.174 C 303.665 297.719 304.044 297.416 304.499 297.416 C 305.105 297.416 305.409 297.795 305.409 298.174 Z " fill="rgb(208,208,208)"/></g><mask id="_mask_WaibEeB7vwThgz2hvUmbCAmT3qCtDBTb" x="-200%" y="-200%" width="400%" height="400%"><rect x="-200%" y="-200%" width="400%" height="400%" style="fill:white;"/><path d=" M 300.996 339.427 L 259.212 351.106 L 259.212 354.822" fill="black" stroke="none"/></mask><path d=" M 300.996 339.427 L 259.212 351.106 L 259.212 354.822" fill="none"/><path d=" M 300.996 339.427 L 259.212 351.106 L 259.212 354.822" fill="none" mask="url(#_mask_WaibEeB7vwThgz2hvUmbCAmT3qCtDBTb)" vector-effect="non-scaling-stroke" stroke-width="0.509" stroke="rgb(232,232,232)" stroke-linejoin="miter" stroke-linecap="butt" stroke-miterlimit="10"/><mask id="_mask_6EciNL3SPBFEvxLqcUBnQMA2SMGVqvp6" x="-200%" y="-200%" width="400%" height="400%"><rect x="-200%" y="-200%" width="400%" height="400%" style="fill:white;"/><line x1="192.479" y1="229.697" x2="192.479" y2="236.673" fill="black" stroke="none"/></mask><line x1="192.479" y1="229.697" x2="192.479" y2="236.673" mask="url(#_mask_6EciNL3SPBFEvxLqcUBnQMA2SMGVqvp6)" vector-effect="non-scaling-stroke" stroke-width="0.509" stroke="rgb(232,232,232)" stroke-linejoin="miter" stroke-linecap="butt" stroke-miterlimit="10"/><mask id="_mask_2MkAu24eBTFsya6mugPL4EK9jf7m5Ocb" x="-200%" y="-200%" width="400%" height="400%"><rect x="-200%" y="-200%" width="400%" height="400%" style="fill:white;"/><line x1="229.182" y1="218.094" x2="229.182" y2="226.815" fill="black" stroke="none"/></mask><line x1="229.182" y1="218.094" x2="229.182" y2="226.815" mask="url(#_mask_2MkAu24eBTFsya6mugPL4EK9jf7m5Ocb)" vector-effect="non-scaling-stroke" stroke-width="0.509" stroke="rgb(232,232,232)" stroke-linejoin="miter" stroke-linecap="butt" stroke-miterlimit="10"/><mask id="_mask_MFUudi5JP7kp8A7ypr8kB3FFDRS18j4m" x="-200%" y="-200%" width="400%" height="400%"><rect x="-200%" y="-200%" width="400%" height="400%" style="fill:white;"/><path d=" M 287.953 175.173 C 287.953 175.173 279.687 176.841 279.687 183.363 C 279.687 189.884 279.687 213.923 279.687 213.923" fill="black" stroke="none"/></mask><path d=" M 287.953 175.173 C 287.953 175.173 279.687 176.841 279.687 183.363 C 279.687 189.884 279.687 213.923 279.687 213.923" fill="none"/><path d=" M 287.953 175.173 C 287.953 175.173 279.687 176.841 279.687 183.363 C 279.687 189.884 279.687 213.923 279.687 213.923" fill="none" mask="url(#_mask_MFUudi5JP7kp8A7ypr8kB3FFDRS18j4m)" vector-effect="non-scaling-stroke" stroke-width="0.509" stroke="rgb(232,232,232)" stroke-linejoin="miter" stroke-linecap="butt" stroke-miterlimit="10"/></g></g></svg>