<?xml version="1.0" encoding="utf-8"?>
<!-- Generator: Adobe Illustrator 19.1.0, SVG Export Plug-In . SVG Version: 6.00 Build 0)  -->
<svg version="1.1" id="Layer_1" xmlns="http://www.w3.org/2000/svg" xmlns:xlink="http://www.w3.org/1999/xlink" x="0px" y="0px"
	 viewBox="0 0 608.9 405.4" style="enable-background:new 0 0 608.9 405.4;" xml:space="preserve">
<style type="text/css">
	.st0{fill:#F8F8F8;}
	.st1{opacity:0.7;}
	.st2{fill:#FFFFFF;}
	.st3{fill:#F3F3F3;}
	.st4{fill:none;stroke:#E8E8E8;stroke-width:0.2544;stroke-miterlimit:10;}
	.st5{fill:none;stroke:#ABABAB;stroke-width:1.0772;stroke-miterlimit:10;}
	.st6{fill:#2693DC;}
	.st7{fill:#FFFFFF;stroke:#FFFFFF;stroke-width:0.7795;stroke-miterlimit:10;}
	.st8{fill:#D0D0D0;}
	
		.st9{fill:none;stroke:#2693DC;stroke-width:2.544;stroke-linecap:round;stroke-linejoin:round;stroke-miterlimit:10;stroke-dasharray:0,7.6319;}
</style>
<path class="st0" d="M157.4,225.2c2.3,14.6-7.6,28.3-22.1,30.6c-14.6,2.3-28.2-7.6-30.6-22.1c-2.3-14.6,7.6-28.2,22.1-30.6
	C141.4,200.7,155.1,210.6,157.4,225.2z"/>
<g class="st1">
	<path class="st2" d="M225.9,200.8c3.6,22.6-11.8,43.9-34.4,47.5c-22.6,3.6-43.9-11.8-47.5-34.4c-3.6-22.6,11.8-43.9,34.4-47.5
		C201,162.8,222.3,178.2,225.9,200.8z"/>
	<path class="st2" d="M247.6,198.7c2.3,14.6-7.6,28.4-22.3,30.8c-14.6,2.3-28.4-7.6-30.8-22.3c-2.4-14.6,7.6-28.4,22.3-30.8
		C231.5,174.1,245.3,184.1,247.6,198.7z"/>
	<path class="st2" d="M240.7,198.3c1.9,11.5-8.2,22.8-22.4,25c-14.2,2.3-27.2-5.2-29.1-16.8c-1.8-11.6,8.2-22.8,22.4-25
		C225.8,179.3,238.9,186.8,240.7,198.3z"/>
	<path class="st0" d="M178.9,181.7c2.1,13.2-6.9,25.6-20.1,27.7c-13.2,2.1-25.6-6.9-27.7-20.1c-2.1-13.2,6.9-25.6,20.1-27.7
		C164.4,159.5,176.8,168.5,178.9,181.7z"/>
	<path class="st2" d="M165.3,191.6c2.5,15.6-10.5,30.7-29.1,33.6s-35.6-7.3-38.1-22.9c-2.5-15.6,10.5-30.7,29.1-33.6
		C145.7,165.8,162.8,176,165.3,191.6z"/>
	<path class="st0" d="M218.2,196.5c3.1,19.6-10.2,38-29.8,41.1c-19.6,3.1-38-10.2-41.1-29.8c-3.1-19.6,10.2-38,29.8-41.1
		C196.6,163.6,215,177,218.2,196.5z"/>
	<path class="st2" d="M214.8,196.1c2.8,17.7-12.7,35-34.7,38.5c-22,3.5-42.1-8-45-25.7c-2.8-17.7,12.7-35,34.7-38.5
		C191.8,166.8,212,178.3,214.8,196.1z"/>
</g>
<g class="st1">
	<path class="st0" d="M435.3,280.6c2.9,18-9.3,34.9-27.3,37.7c-18,2.9-34.9-9.3-37.7-27.3c-2.9-18,9.3-34.9,27.3-37.7
		C415.5,250.5,432.4,262.7,435.3,280.6z"/>
	<path class="st0" d="M467.1,289.3c3.5,21.9-11.4,42.5-33.3,46c-21.9,3.5-42.4-11.4-46-33.3c-3.5-21.9,11.4-42.4,33.3-46
		C443.1,252.5,463.6,267.4,467.1,289.3z"/>
	<path class="st2" d="M466.6,286.1c3.1,19.2-12.7,37.6-35.2,41.2c-22.5,3.6-43.3-9-46.3-28.1c-3.1-19.2,12.7-37.6,35.2-41.2
		C442.8,254.3,463.6,266.9,466.6,286.1z"/>
	<path class="st0" d="M602.7,254.7c-0.3,20.7-18.6,37.2-40.9,36.9c-22.3-0.3-40.1-17.4-39.8-38.1c0.3-20.7,18.6-37.2,40.9-36.9
		C585.2,216.9,603,234,602.7,254.7z"/>
	<path class="st2" d="M592.3,248.9c2.8,17.4-12.3,34.2-33.6,37.6c-21.4,3.4-40.9-7.9-43.7-25.2c-2.8-17.4,12.3-34.2,33.6-37.6
		S589.5,231.5,592.3,248.9z"/>
	<path class="st0" d="M514.6,228.8c3.7,23.3-12.2,45.3-35.5,49.1c-23.3,3.7-45.3-12.1-49-35.5c-3.7-23.3,12.1-45.3,35.5-49.1
		C488.9,189.5,510.9,205.4,514.6,228.8z"/>
	<path class="st2" d="M461.2,254.1c3.8,23.4-15.8,46.1-43.7,50.5c-27.9,4.5-53.5-10.9-57.3-34.4c-3.8-23.4,15.8-46.1,43.7-50.6
		C431.8,215.3,457.4,230.7,461.2,254.1z"/>
	<path class="st0" d="M545.4,246.2c4.7,29.4-15.3,57.1-44.7,61.8c-29.4,4.7-57.1-15.3-61.8-44.7c-4.7-29.4,15.3-57.1,44.7-61.8
		C513,196.8,540.7,216.8,545.4,246.2z"/>
	<path class="st2" d="M548.4,245.9c4.3,26.6-19.1,52.5-52.1,57.8c-33,5.3-63.3-12-67.6-38.6c-4.3-26.6,19.1-52.5,52.1-57.8
		C513.9,201.9,544.2,219.2,548.4,245.9z"/>
</g>
<g class="st1">
	<path class="st0" d="M110.7,314.6c3.1,19.2-12.7,37.6-35.2,41.2c-22.5,3.6-43.3-9-46.3-28.1c-3.1-19.2,12.7-37.6,35.2-41.2
		C86.9,282.9,107.6,295.5,110.7,314.6z"/>
	<path class="st0" d="M67.1,312c2.3,14.6-9.8,28.7-27,31.5c-17.3,2.8-33.2-6.8-35.5-21.4c-2.3-14.6,9.8-28.7,27-31.5
		C48.8,287.8,64.7,297.4,67.1,312z"/>
	<path class="st2" d="M217.9,242.6c2.8,17.4-12.3,34.2-33.6,37.6c-21.4,3.4-40.9-7.9-43.7-25.2c-2.8-17.4,12.3-34.2,33.6-37.6
		C195.5,214,215.1,225.3,217.9,242.6z"/>
	<path class="st0" d="M174.6,263.4c3.7,23.3-12.2,45.3-35.5,49.1c-23.3,3.7-45.3-12.1-49-35.5c-3.7-23.3,12.1-45.3,35.5-49.1
		C148.9,224.2,170.9,240.1,174.6,263.4z"/>
	<path class="st2" d="M166.5,266.5c3.2,19.8-13.9,39-38.1,42.9c-24.2,3.9-46.4-9-49.6-28.8c-3.2-19.8,13.9-39,38.1-42.9
		C141.1,233.8,163.3,246.7,166.5,266.5z"/>
	<path class="st2" d="M123.2,294.2c3.8,23.4-15.8,46.1-43.7,50.5s-53.5-10.9-57.3-34.4C18.4,287,38,264.3,65.9,259.9
		C93.7,255.4,119.4,270.8,123.2,294.2z"/>
</g>
<g>
	<g>
		<path class="st3" d="M321.5,355.8c0,0,42.2,31,47.7,35.1c5.5,4.1,3.5,14.5,3.5,14.5l-68.1-17.8
			C316.9,378.7,321.5,355.8,321.5,355.8z"/>
		<path class="st2" d="M326.8,50.9c0,8.6,0,215.4,0,240.6c0,16.9-5.3,64.2-5.3,64.2s-4.6,22.9-16.8,31.8V0
			C318.3,0,326.8,42.3,326.8,50.9z"/>
		<ellipse class="st2" cx="376.4" cy="129.5" rx="1.5" ry="0"/>
		<path class="st3" d="M497.6,234.7c-6.3-3.1-78.8-39-127.3-63c1.5-4,4.6-13.1,4.6-23.6c0-14.1-1.1-20.7-2.7-20.7h-11.6H349
			c-1.6,0-2.7,6.6-2.7,20.7c0,4.5,0.5,8.7,1.3,12.3c-12.7-6.3-20.8-10.3-20.8-10.3v64.7c5.4,1.3,10.6,2.6,15.7,3.9
			c0.8,5,1.9,8.7,3,8.7c1,0,2-3,2.7-7.3c9.8,2.4,19,4.8,27.6,6.9c0.8,5.1,1.9,9,3,9c1,0,2-3.1,2.8-7.5c16.3,4.2,30.5,7.9,42.9,11.2
			c0.8,5,1.9,8.9,3,8.9c1,0,2-3.1,2.8-7.3c48.5,13.1,66.4,19.4,73,22.3c1.8,0.8,3.8-0.6,3.7-2.5
			C506.4,253.3,504.6,238.1,497.6,234.7z"/>
		<polyline class="st4" points="493.5,259.7 493.5,251 353.4,206.8 353.4,221.5 		"/>
		<polyline class="st4" points="309.5,383 364.6,398.4 364.6,403.3 		"/>
		<path class="st5" d="M321.5,355.8"/>
		<line class="st4" x1="452.6" y1="238.3" x2="452.6" y2="247.5"/>
		<line class="st4" x1="404.3" y1="223" x2="404.3" y2="234.5"/>
		<path class="st4" d="M326.8,166.4c0,0,10.9,2.2,10.9,10.8s0,40.3,0,40.3"/>
	</g>
	<path class="st3" d="M287.8,355.8c0,0-42.2,31-47.7,35.1c-5.5,4.1-3.5,14.5-3.5,14.5l68.1-17.8
		C292.4,378.7,287.8,355.8,287.8,355.8z"/>
	<path class="st2" d="M282.6,50.9c0,8.6,0,215.4,0,240.6c0,16.9,5.3,64.2,5.3,64.2s4.6,22.9,16.8,31.8V0
		C291,0,282.6,42.3,282.6,50.9z"/>
	<path class="st6" d="M303.6,26.9c7.3,0,13.2,5.7,14.1,13.1c0.1-0.6,0.1-1.3,0.1-1.9c0-8.3-6.4-15-14.3-15s-14.3,6.7-14.3,15
		c0,0.7,0.1,1.3,0.1,1.9C290.3,32.6,296.3,26.9,303.6,26.9z"/>
	<line class="st7" x1="303.6" y1="17.6" x2="303.6" y2="39.9"/>
	<line class="st7" x1="313.9" y1="18.3" x2="306.2" y2="39.3"/>
	<line class="st7" x1="293.3" y1="18.3" x2="300.9" y2="39.3"/>
	<ellipse class="st2" cx="232.9" cy="129.5" rx="1.5" ry="0"/>
	<path class="st3" d="M282.6,150.1c0,0-8.1,4-20.8,10.3c0.7-3.7,1.3-7.9,1.3-12.3c0-14.1-1.1-20.7-2.7-20.7h-11.6h-11.6
		c-1.6,0-2.7,6.6-2.7,20.7c0,10.5,3,19.7,4.6,23.6c-48.5,24-120.9,59.8-127.3,63c-7,3.5-8.8,18.6-9.3,26.5c-0.1,2,1.9,3.3,3.7,2.5
		c6.6-2.9,24.5-9.2,73-22.3c0.8,4.3,1.7,7.3,2.8,7.3c1.1,0,2.2-3.8,3-8.9c12.3-3.3,26.5-7,42.9-11.2c0.8,4.3,1.7,7.5,2.8,7.5
		c1.1,0,2.2-3.9,3-9c8.6-2.2,17.8-4.5,27.6-6.9c0.8,4.3,1.7,7.3,2.7,7.3c1.1,0,2.2-3.7,3-8.7c5.1-1.3,10.3-2.6,15.7-3.9V150.1z"/>
	<polyline class="st4" points="115.8,259.7 115.8,251 255.9,206.8 255.9,221.5 	"/>
	<g>
		<line class="st2" x1="303.2" y1="328.6" x2="303.2" y2="398.6"/>
		<path class="st8" d="M304.3,328.6c0,0,0.4,4.4,0.7,11c0.1,3.3,0.3,7.1,0.3,11.2c0.1,2.1,0.1,4.2,0.1,6.3c0,2.2,0,4.3,0,6.5
			c0,4.4-0.1,8.8-0.2,12.9c-0.1,4.1-0.2,7.9-0.4,11.2c-0.3,6.6-0.6,11-0.6,11c0,0.6-0.6,1-1.2,1c-0.5,0-0.9-0.5-1-1
			c0,0-0.4-4.4-0.6-11c-0.1-3.3-0.3-7.1-0.4-11.2c-0.1-4.1-0.1-8.5-0.2-12.9c0-2.2,0-4.4,0-6.5c0-2.2,0-4.3,0.1-6.3
			c0.1-4.1,0.2-7.9,0.3-11.2c0.3-6.6,0.7-11,0.7-11c0.1-0.6,0.6-1,1.2-1C303.9,327.6,304.3,328.1,304.3,328.6z"/>
	</g>
	<polyline class="st4" points="299.8,383 244.7,398.4 244.7,403.3 	"/>
	<path class="st5" d="M287.8,355.8"/>
	<line class="st4" x1="156.7" y1="238.3" x2="156.7" y2="247.5"/>
	<line class="st4" x1="205.1" y1="223" x2="205.1" y2="234.5"/>
	<path class="st4" d="M282.6,166.4c0,0-10.9,2.2-10.9,10.8s0,40.3,0,40.3"/>
</g>
<path class="st9" d="M209.2,105.3"/>
</svg>
