<svg xmlns="http://www.w3.org/2000/svg" width="181.811" height="200" viewBox="0 0 181.811 200"><g transform="translate(-12.742 -260.744)"><path fill="rgb(255, 255, 255)" d="M92.532,260.744c-4.872,0-8.795,4.626-8.795,10.374v53.951c0,5.748,3.923,10.377,8.795,10.377h20.812l-2.192,23.648,25.679-23.648h48.926c4.872,0,8.795-4.629,8.795-10.377V271.118c0-5.748-3.923-10.374-8.795-10.374ZM110.6,290.523a7.547,7.547,0,1,1-7.463,7.549A7.506,7.506,0,0,1,110.6,290.523Zm28.652,0a7.547,7.547,0,1,1-7.463,7.548,7.505,7.505,0,0,1,7.463-7.548Zm28.652,0a7.547,7.547,0,1,1-7.466,7.548,7.505,7.505,0,0,1,7.466-7.548ZM21.536,362.392c-4.872,0-8.795,4.629-8.795,10.377v53.951c0,5.748,3.923,10.374,8.795,10.374H70.463l25.679,23.651-2.2-23.651h20.816c4.872,0,8.795-4.626,8.795-10.374V372.769c0-5.748-3.923-10.377-8.795-10.377Zm17.85,29.778a7.549,7.549,0,1,1-7.463,7.548,7.505,7.505,0,0,1,7.463-7.548Zm28.652,0a7.549,7.549,0,1,1-7.466,7.548,7.505,7.505,0,0,1,7.466-7.548Zm28.648,0a7.549,7.549,0,1,1-7.463,7.548,7.505,7.505,0,0,1,7.463-7.548Z" transform="translate(0 0)"/></g></svg>
