<svg xmlns="http://www.w3.org/2000/svg" width="200" height="170.984" viewBox="0 0 200 170.984"><path fill="rgb(255, 255, 255)" d="M70.414,264.589a40.547,40.547,0,1,0,23.05,73.895,56.49,56.49,0,0,1,12.554-52.747,40.548,40.548,0,0,0-35.6-21.148Zm77.8,12.782a46.213,46.213,0,1,0,46.213,46.213A46.213,46.213,0,0,0,148.217,277.371Zm-77.8,77.763c-20.048,0-65.713,34.68-55.689,42.293,6.048,4.593,41.678,6.41,71.205,5.461a127.8,127.8,0,0,1,11.322-9.574,157.817,157.817,0,0,1,20.358-13.131c-12.785-11.887-34.845-25.05-47.2-25.05Zm77.8,25.729c-22.849,0-74.9,39.526-63.47,48.2s115.516,8.676,126.941,0-40.621-48.2-63.47-48.2Z" transform="translate(-13.305 -264.589)"/></svg>
