<svg xmlns="http://www.w3.org/2000/svg" width="200" height="176.229" viewBox="0 0 200 176.229"><path fill="rgb(255, 255, 255)" d="M108.986,262.6a4.089,4.089,0,0,0-4.1,4.1V434.735a4.089,4.089,0,0,0,4.1,4.1h98.361a4.089,4.089,0,0,0,4.1-4.1V266.7a4.089,4.089,0,0,0-4.1-4.1Zm20.492,27.049h17.213a2.454,2.454,0,0,1,2.459,2.459v16.393a2.454,2.454,0,0,1-2.459,2.459H129.478a2.454,2.454,0,0,1-2.459-2.459V292.112A2.454,2.454,0,0,1,129.478,289.653Zm40.164,0h17.213a2.454,2.454,0,0,1,2.459,2.459v16.393a2.453,2.453,0,0,1-2.459,2.459H169.641a2.453,2.453,0,0,1-2.459-2.459V292.112A2.454,2.454,0,0,1,169.641,289.653Zm-154.1,24.59a4.089,4.089,0,0,0-4.1,4.1V433.916a4.089,4.089,0,0,0,4.1,4.1H85.215a4.089,4.089,0,0,0,4.1-4.1V318.342a4.089,4.089,0,0,0-4.1-4.1Zm113.934,13.115h17.213a2.454,2.454,0,0,1,2.459,2.459v16.393a2.454,2.454,0,0,1-2.459,2.459H129.478a2.454,2.454,0,0,1-2.459-2.459V329.817A2.454,2.454,0,0,1,129.478,327.358Zm40.164,0h17.213a2.454,2.454,0,0,1,2.459,2.459v16.393a2.454,2.454,0,0,1-2.459,2.459H169.641a2.454,2.454,0,0,1-2.459-2.459V329.817A2.454,2.454,0,0,1,169.641,327.358ZM29.478,333.916h41.8a2.454,2.454,0,0,1,2.459,2.459v4.918a2.454,2.454,0,0,1-2.459,2.459h-41.8a2.454,2.454,0,0,1-2.459-2.459v-4.918a2.454,2.454,0,0,1,2.459-2.459Zm0,25h41.8a2.454,2.454,0,0,1,2.459,2.459v4.918a2.454,2.454,0,0,1-2.459,2.459h-41.8a2.454,2.454,0,0,1-2.459-2.459v-4.918a2.454,2.454,0,0,1,2.459-2.459Zm100,6.148h17.213a2.454,2.454,0,0,1,2.459,2.459v16.393a2.454,2.454,0,0,1-2.459,2.459H129.478a2.454,2.454,0,0,1-2.459-2.459V367.522A2.454,2.454,0,0,1,129.478,365.063Zm40.164,0h17.213a2.454,2.454,0,0,1,2.459,2.459v16.393a2.454,2.454,0,0,1-2.459,2.459H169.641a2.454,2.454,0,0,1-2.459-2.459V367.522A2.454,2.454,0,0,1,169.641,365.063ZM29.478,383.916h41.8a2.454,2.454,0,0,1,2.459,2.459v4.918a2.454,2.454,0,0,1-2.459,2.459h-41.8a2.454,2.454,0,0,1-2.459-2.459v-4.918a2.454,2.454,0,0,1,2.459-2.459Z" transform="translate(-11.445 -262.604)"/></svg>
